<?xml version="1.0" standalone="no"?>
<!DOCTYPE svg PUBLIC "-//W3C//DTD SVG 1.1//EN" "http://www.w3.org/Graphics/SVG/1.1/DTD/svg11.dtd" >
<!--
2013-9-30: Created.
-->
<svg>
<metadata>
Created by iconfont
</metadata>
<defs>

<font id="excel-icons" horiz-adv-x="1024" >
  <font-face
    font-family="excel-icons"
    font-weight="500"
    font-stretch="normal"
    units-per-em="1024"
    ascent="896"
    descent="-128"
  />
    <missing-glyph />
    
    <glyph glyph-name="CreditCard" unicode="&#58944;" d="M987.420444 786.488889H36.579556C16.355556 786.488889 0 770.161778 0 749.909333V18.488889c0-20.224 16.355556-36.551111 36.579556-36.551111h950.840888c20.224 0 36.579556 16.327111 36.579556 36.551111V749.909333c0 20.252444-16.355556 36.579556-36.579556 36.579556zM82.289778 704.199111h859.420444v-137.130667H82.289778V704.199111z m859.420444-640H82.289778V466.488889h859.420444v-402.289778z m-270.848 73.159111h188.586667a9.159111 9.159111 0 0 1 9.102222 9.130667v82.289778a9.159111 9.159111 0 0 1-9.102222 9.159111h-188.586667a9.159111 9.159111 0 0 1-9.159111-9.159111v-82.289778c0-5.034667 4.124444-9.130667 9.159111-9.130667z"  horiz-adv-x="1024" />

    
    <glyph glyph-name="clock-circle" unicode="&#59200;" d="M512 832C264.590222 832 64 631.409778 64 384S264.590222-64 512-64 960 136.590222 960 384 759.409778 832 512 832z m176.497778-585.699556L659.911111 207.303111a7.964444 7.964444 0 0 0-11.207111-1.706667l-165.404444 120.604445a7.879111 7.879111 0 0 0-3.299556 6.513778v275.285333c0 4.408889 3.612444 7.992889 7.992889 7.992889h48.099555c4.408889 0 7.992889-3.584 7.992889-7.992889v-247.495111l142.620445-103.111111a7.879111 7.879111 0 0 0 1.792-11.093334z"  horiz-adv-x="1024" />

    
    <glyph glyph-name="DeleteOutlined" unicode="&#58945;" d="M338.261333 758.954667h-9.130666a9.159111 9.159111 0 0 1 9.130666 9.159111v-9.159111h347.448889v9.159111c0-5.034667 4.096-9.159111 9.102222-9.159111h-9.102222V676.693333h82.261334V768.113778a73.216 73.216 0 0 1-73.130667 73.130666H329.102222a73.216 73.216 0 0 1-73.159111-73.130666v-91.448889h82.289778V758.954667z m576-82.289778H109.710222c-20.252444 0-36.579556-16.327111-36.579555-36.551111v-36.579556c0-5.034667 4.096-9.159111 9.130666-9.159111H151.324444l28.216889-597.703111a73.216 73.216 0 0 1 73.045334-69.688889h518.826666a73.045333 73.045333 0 0 1 73.045334 69.688889l28.245333 597.731556h69.006222a9.159111 9.159111 0 0 1 9.159111 9.102222V640.142222c0 20.195556-16.355556 36.551111-36.579555 36.551111zM762.595556 9.244444H261.376l-27.648 585.159112h556.572444l-27.676444-585.159112z"  horiz-adv-x="1024" />

    
    <glyph glyph-name="close-circle" unicode="&#59201;" d="M512 832C264.590222 832 64 631.409778 64 384S264.590222-64 512-64 960 136.590222 960 384 759.409778 832 512 832z m165.404444-618.211556l-65.991111 0.312889L512 332.600889l-99.299556-118.414222-66.104888-0.284445a7.964444 7.964444 0 0 0-7.992889 7.992889c0 1.905778 0.682667 3.697778 1.905777 5.205333l130.076445 155.022223-130.076445 154.88a8.021333 8.021333 0 0 0 6.087112 13.198222l66.104888-0.284445L512 431.36l99.299556 118.414222 65.991111 0.284445a7.964444 7.964444 0 0 0 8.021333-7.964445c0-1.934222-0.711111-3.697778-1.905778-5.233778l-129.905778-154.88 129.991112-155.022222a8.021333 8.021333 0 0 0-6.087112-13.198222z"  horiz-adv-x="1024" />

    
    <glyph glyph-name="DeliveredProcedure" unicode="&#58946;" d="M649.130667 170.951111l162.161777 128a9.159111 9.159111 0 0 1 0 14.392889l-162.161777 128a9.159111 9.159111 0 0 1-14.848-7.196444v-86.869334H263.964444a9.159111 9.159111 0 0 1-9.159111-9.130666v-64c0-5.034667 4.124444-9.159111 9.159111-9.159112h370.289778v-86.840888c0-7.68 8.903111-11.889778 14.848-7.196445zM947.768889 633.799111l-185.827556 185.827556a72.846222 72.846222 0 0 1-30.520889 18.289777v3.100445h-640c-20.224 0-36.579556-16.355556-36.579555-36.579556v-317.724444c0-5.034667 4.124444-9.130667 9.159111-9.130667H128a9.159111 9.159111 0 0 1 9.130667 9.130667V758.727111h155.420444v-155.448889c0-20.195556 16.355556-36.551111 36.579556-36.551111h365.710222c20.224 0 36.579556 16.327111 36.579555 36.551111V733.809778l155.420445-155.420445v-91.676444c0-5.034667 4.124444-9.130667 9.159111-9.130667h64a9.159111 9.159111 0 0 1 9.130667 9.130667v95.431111c0 19.427556-7.68 37.944889-21.361778 51.655111z m-289.507556 6.058667H365.710222V758.727111h292.551111v-118.869333zM960 141.568H896a9.159111 9.159111 0 0 1-9.102222-9.130667v-123.448889H137.102222v123.448889a9.159111 9.159111 0 0 1-9.130666 9.130667H64a9.159111 9.159111 0 0 1-9.159111-9.130667v-169.159111c0-20.195556 16.355556-36.551111 36.579555-36.551111h841.130667c20.224 0 36.579556 16.327111 36.579556 36.551111v169.159111a9.159111 9.159111 0 0 1-9.159111 9.130667z"  horiz-adv-x="1024" />

    
    <glyph glyph-name="close-square" unicode="&#59202;" d="M880.014222 783.985778H144.014222c-17.720889 0-32-14.279111-32-31.971556v-736c0-17.720889 14.279111-32 31.971556-32h736c17.720889 0 32 14.279111 32 31.971556V751.985778c0 17.720889-14.279111 32-31.971556 32z m-203.918222-545.877334a7.964444 7.964444 0 0 0-6.087111-13.084444h-58.908445a16.298667 16.298667 0 0 0-12.288 5.688889L512 334.165333l-86.812444-103.509333a15.985778 15.985778 0 0 0-12.288-5.688889h-58.88a7.964444 7.964444 0 0 0-6.115556 13.084445l122.311111 145.92-122.311111 145.92a7.964444 7.964444 0 0 0 6.087111 13.084444h58.908445c4.693333 0 9.187556-2.104889 12.288-5.688889L512 433.777778l86.812444 103.537778a15.985778 15.985778 0 0 0 12.288 5.688888h58.88c6.826667 0 10.524444-7.907556 6.115556-13.084444L553.813333 384l122.311111-145.92z"  horiz-adv-x="1024" />

    
    <glyph glyph-name="Dashboard" unicode="&#58947;" d="M983.780409 528.327111a510.520889 510.520889 0 0 1-109.710222 162.730667A510.520889 510.520889 0 0 1 512.000853 841.016889 510.492444 510.492444 0 0 1 149.93152 691.086222 510.492444 510.492444 0 0 1 0.000853 328.96a511.061333 511.061333 0 0 1 182.755556-392.106667l1.934222-1.592889c6.627556-5.489778 14.961778-8.561778 23.552-8.561777h607.630222c8.590222 0 16.924444 3.072 23.552 8.561777l1.962667 1.592889A511.345778 511.345778 0 0 1 1024.000853 329.016889c0 69.12-13.596444 136.106667-40.220444 199.310222zM797.014187 13.568H226.98752a424.106667 424.106667 0 0 0-140.117333 315.448889c0 113.578667 44.202667 220.330667 124.558222 300.572444A422.314667 422.314667 0 0 0 512.000853 754.147556c113.607111 0 220.330667-44.231111 300.572445-124.586667a422.314667 422.314667 0 0 0 124.586666-300.544 424.106667 424.106667 0 0 0-140.145777-315.448889z m-157.582223 473.713778a9.187556 9.187556 0 0 1-12.913777 0l-96.568889-96.568889a63.857778 63.857778 0 0 1-75.719111-37.319111 63.971556 63.971556 0 0 1 59.164444-88.547556 63.914667 63.914667 0 0 1 45.226667 18.773334 63.857778 63.857778 0 0 1 16.583111 61.838222l96.568889 96.568889a9.187556 9.187556 0 0 1 0 12.913777l-32.341334 32.341334z m-152.576 115.996444h50.289778a9.159111 9.159111 0 0 1 9.130667 9.159111V703.857778a9.159111 9.159111 0 0 1-9.130667 9.159111h-50.289778a9.159111 9.159111 0 0 1-9.130666-9.159111v-91.420445c0-5.034667 4.096-9.159111 9.130666-9.159111z m297.159112-249.116444v-50.289778c0-5.034667 4.096-9.159111 9.102222-9.159111h91.448889a9.159111 9.159111 0 0 1 9.159111 9.159111V354.133333a9.159111 9.159111 0 0 1-9.159111 9.102223h-91.420445a9.159111 9.159111 0 0 1-9.159111-9.102223z m14.506666 225.365333l-35.555555 35.555556a9.187556 9.187556 0 0 1-12.913778 0l-64.682667-64.711111a9.187556 9.187556 0 0 1 0-12.913778l35.555556-35.555556c3.527111-3.527111 9.386667-3.527111 12.913778 0l64.682666 64.711111a9.187556 9.187556 0 0 1 0 12.913778zM274.404409 615.082667a9.187556 9.187556 0 0 1-12.913778 0l-35.555555-35.555556a9.187556 9.187556 0 0 1 0-12.913778l64.682666-64.682666c3.555556-3.555556 9.386667-3.555556 12.913778 0l35.555556 35.555555a9.187556 9.187556 0 0 1 0 12.885334L274.404409 615.054222z m-48.128-251.790223H134.855964a9.159111 9.159111 0 0 1-9.130666-9.130666v-50.289778c0-5.034667 4.096-9.159111 9.130666-9.159111h91.420445a9.159111 9.159111 0 0 1 9.159111 9.159111V354.133333a9.159111 9.159111 0 0 1-9.159111 9.102223z"  horiz-adv-x="1024" />

    
    <glyph glyph-name="code" unicode="&#59203;" d="M864 636.017778h-135.992889l-32.426667 90.794666a32.085333 32.085333 0 0 1-30.179555 21.191112H358.599111c-13.511111 0-25.6-8.504889-30.094222-21.191112l-32.512-90.823111H160a79.985778 79.985778 0 0 1-80.014222-79.985777v-455.992889a79.985778 79.985778 0 0 1 80.014222-80.014223h704a79.985778 79.985778 0 0 1 80.014222 80.014223v455.964444a79.985778 79.985778 0 0 1-80.014222 80.014222zM512 179.968a159.943111 159.943111 0 0 0-160 160A159.943111 159.943111 0 0 0 512 499.996444a159.943111 159.943111 0 0 0 160-160A159.943111 159.943111 0 0 0 512 179.996444z m-96 160a96 96 0 1 1 192 0 96 96 0 0 1-192 0z"  horiz-adv-x="1024" />

    
    <glyph glyph-name="Desktop" unicode="&#58948;" d="M987.420444 809.016889H36.579556C16.355556 809.016889 0 792.661333 0 772.437333v-566.869333c0-20.195556 16.355556-36.551111 36.579556-36.551111h434.289777v-128H274.289778a18.346667 18.346667 0 0 1-18.289778-18.289778v-54.869333c0-5.034667 4.124444-9.130667 9.130667-9.130667H758.897778A9.159111 9.159111 0 0 1 768-32.142222V22.755556a18.346667 18.346667 0 0 1-18.289778 18.289777h-196.551111v128h434.261333c20.224 0 36.579556 16.327111 36.579556 36.551111V772.437333c0 20.224-16.355556 36.579556-36.579556 36.579556z m-45.710222-557.738667H82.289778V726.755556h859.420444v-475.448889z"  horiz-adv-x="1024" />

    
    <glyph glyph-name="contacts" unicode="&#59204;" d="M928 672H768V728.007111a8.021333 8.021333 0 0 1-7.992889 7.992889H704a8.021333 8.021333 0 0 1-7.992889-7.992889v-56.007111h-147.996444V728.007111a8.021333 8.021333 0 0 1-8.021334 7.992889h-55.978666a8.021333 8.021333 0 0 1-8.021334-7.992889v-56.007111h-147.996444V728.007111a8.021333 8.021333 0 0 1-7.992889 7.992889H263.992889A8.021333 8.021333 0 0 1 256 728.007111v-56.007111H96c-17.692444 0-32-14.307556-32-32v-576c0-17.692444 14.307556-32 32-32h832c17.692444 0 32 14.307556 32 32V640c0 17.692444-14.307556 32-32 32z m-267.008-512h-43.889778a7.964444 7.964444 0 0 0-7.907555 7.509333A97.792 97.792 0 0 1 512 257.991111c-51.2 0-93.411556-39.992889-97.194667-90.481778a7.964444 7.964444 0 0 0-7.907555-7.509333h-43.889778a8.049778 8.049778 0 0 0-8.021333 8.391111 158.179556 158.179556 0 0 0 74.609777 126.094222 111.786667 111.786667 0 0 0-29.098666 75.52c0 61.895111 49.891556 111.985778 111.416889 111.985778 61.496889 0 111.388444-50.090667 111.388444-111.985778a111.985778 111.985778 0 0 0-29.098667-75.491555 158.094222 158.094222 0 0 0 74.581334-126.122667 7.708444 7.708444 0 0 0-7.793778-8.391111zM512 421.973333c-28.501333 0-51.712-23.267556-51.712-51.968 0-28.728889 23.210667-51.996444 51.712-51.996444 28.501333 0 51.712 23.296 51.712 51.996444A51.882667 51.882667 0 0 1 512 422.001778z"  horiz-adv-x="1024" />

    
    <glyph glyph-name="Database" unicode="&#58949;" d="M877.681778 896H146.261333C126.008889 896 109.681778 879.644444 109.681778 859.420444v-950.840888c0-20.224 16.355556-36.579556 36.579555-36.579556h731.420445c20.224 0 36.579556 16.355556 36.579555 36.579556V859.420444C914.261333 879.644444 897.905778 896 877.681778 896zM192 813.710222h640v-237.710222H192V813.710222z m640-548.579555H192V502.897778h640v-237.738667z m0-310.840889H192V192h640v-237.710222zM274.261333 694.869333a45.710222 45.710222 0 1 1 91.420445 0 45.710222 45.710222 0 0 1-91.420445 0z m0-310.869333a45.710222 45.710222 0 1 1 91.420445 0 45.710222 45.710222 0 0 1-91.420445 0z m0-310.869333a45.710222 45.710222 0 1 1 91.420445 0 45.710222 45.710222 0 0 1-91.420445 0z"  horiz-adv-x="1024" />

    
    <glyph glyph-name="code-sandbox-circle" unicode="&#59205;" d="M512 832C264.590222 832 64 631.409778 64 384S264.590222-64 512-64 960 136.590222 960 384 759.409778 832 512 832z m243.712-589.198222L512 102.001778l-243.712 140.8v281.400889l110.023111 63.601777-0.398222 0.199112h0.199111L512 665.002667l133.973333-76.999111h-0.170666l-0.284445-0.199112 110.08-63.601777v-281.400889h0.113778z m-447.800889 116.508444l87.608889-49.92v-94.378666l96.682667-55.921778V371.2l-184.32 106.382222v-118.272z m203.889778 151.779556l-93.809778 53.902222-91.079111-52.593778 185.173333-107.008 185.230223 106.922667-91.420445 52.792889-94.094222-54.016z m19.996444-352l97.28 56.206222v94.094222l87.04 49.493334v118.613333l-184.32-106.496v-211.911111z"  horiz-adv-x="1024" />

    
    <glyph glyph-name="DeploymentUnit" unicode="&#58950;" d="M942.023111 176.696889a126.862222 126.862222 0 0 1-147.626667-14.620445l-60.586666 35.072v173.397334c0 17.92-9.614222 34.616889-25.144889 43.52l-155.448889 89.486222V580.266667a128.028444 128.028444 0 1 1-82.261333 0v-76.686223l-155.448889-89.486222c-15.530667-8.903111-25.144889-25.6-25.144889-43.52v-173.255111l-60.586667-35.100444a126.890667 126.890667 0 0 1-147.626666 14.620444 128.199111 128.199111 0 0 1-46.848-174.734222 127.089778 127.089778 0 0 1 173.937777-46.848 128 128 0 0 1 61.240889 135.765333l55.665778 32.341334 160.711111-92.586667c7.736889-4.437333 16.440889-6.712889 25.116445-6.712889 8.675556 0 17.351111 2.275556 25.144888 6.712889l160.568889 92.472889 55.665778-32.341334a128.256 128.256 0 0 1 61.240889-135.765333 126.947556 126.947556 0 0 1 173.966222 46.848c35.185778 61.269333 14.392889 139.434667-46.535111 174.734222z m-769.137778-158.151111a54.357333 54.357333 0 0 0-74.524444 20.110222 54.840889 54.840889 0 0 0 40.192 81.720889 54.442667 54.442667 0 0 0 54.328889-26.993778c15.075556-26.168889 6.172444-59.761778-19.996445-74.837333z m284.216889 682.951111a54.869333 54.869333 0 0 0 109.738667 0 54.869333 54.869333 0 0 0-109.738667 0z m194.275556-509.923556L512 111.217778l-139.434667 80.355555v160.426667L512 432.355556l139.434667-80.327112v-160.455111z m274.204444-153.031111a54.499556 54.499556 0 0 0-74.524444-20.110222 54.954667 54.954667 0 0 0-19.996445 74.837333 54.499556 54.499556 0 0 0 74.524445 20.110223c26.168889-15.075556 35.072-48.554667 19.996444-74.837334z"  horiz-adv-x="1024" />

    
    <glyph glyph-name="compass" unicode="&#59206;" d="M512 832C264.590222 832 64 631.409778 64 384S264.590222-64 512-64 960 136.590222 960 384 759.409778 832 512 832z m-184.689778-638.407111a3.982222 3.982222 0 0 0-5.319111 2.104889 4.408889 4.408889 0 0 0 0 3.214222l98.702222 225.479111 132.096-132.096-225.479111-98.702222z m375.096889 375.096889l-98.702222-225.479111-132.096 132.096 225.479111 98.702222a3.982222 3.982222 0 0 0 5.319111-2.104889 4.437333 4.437333 0 0 0 0-3.214222z"  horiz-adv-x="1024" />

    
    <glyph glyph-name="Dislike" unicode="&#58951;" d="M939.320889 408.547556a147.057778 147.057778 0 0 1-23.665778 131.100444 147.057778 147.057778 0 0 1-23.665778 131.100444 146.944 146.944 0 0 1-83.313777 177.607112 75.548444 75.548444 0 0 1-30.264889 6.144H91.448889c-20.224 0-36.579556-16.327111-36.579556-36.551112V401.92c0-20.252444 16.355556-36.579556 36.579556-36.579556H239.217778l98.048-355.214222a132.864 132.864 0 0 1 127.772444-97.251555 121.6 121.6 0 0 1 89.031111 38.172444 121.457778 121.457778 0 0 1 33.735111 90.737778l-6.883555 140.458667h274.204444c13.795556 0 27.306667 3.669333 39.168 10.638222 46.193778 26.851556 74.865778 75.548444 74.865778 126.862222a147.057778 147.057778 0 0 1-29.838222 88.775111z m-802.133333 39.224888V772.323556h92.558222v-324.551112H137.159111z m716.8-183.324444H494.648889l10.979555-226.730667c0.682667-13.624889-5.404444-26.396444-16.696888-34.872889a39.822222 39.822222 0 0 0-24.120889-7.651555 50.602667 50.602667 0 0 0-48.213334 36.920889l-113.720889 411.989333V772.352h474.737778a64.967111 64.967111 0 0 0 30.520889-90.424889l-15.900444-29.013333 25.031111-21.731556a64.853333 64.853333 0 0 0 22.414222-49.123555c0-11.093333-2.645333-21.617778-7.879111-31.203556l-15.900445-29.013333 25.031112-21.731556a64.881778 64.881778 0 0 0 22.414222-49.152c0-11.093333-2.645333-21.617778-7.907556-31.203555l-15.985778-29.127111 25.031112-21.731556a64.881778 64.881778 0 0 0 22.385777-49.123556c0-21.845333-12.572444-42.865778-32.910222-55.324444z"  horiz-adv-x="1024" />

    
    <glyph glyph-name="container" unicode="&#59207;" d="M832 832H192c-17.692444 0-32-14.307556-32-32v-529.009778c0 0.597333 0.398222 0.995556 0.995556 0.995556h219.306666l5.205334-24.689778A129.422222 129.422222 0 0 1 512 144.014222a129.223111 129.223111 0 0 1 126.407111 103.281778l5.205333 24.718222h219.392c0.568889 0 0.995556-0.426667 0.995556-1.024V800c0 17.692444-14.307556 32-32 32z m-120.007111-428.999111a8.021333 8.021333 0 0 0-7.992889-7.992889h-384a8.021333 8.021333 0 0 0-7.992889 7.992889v48.014222c0 4.380444 3.584 7.964444 7.992889 7.964445h384c4.408889 0 7.992889-3.584 7.992889-7.964445v-48.014222z m0 160a8.021333 8.021333 0 0 0-7.992889-7.992889h-384a8.021333 8.021333 0 0 0-7.992889 7.992889v48.014222c0 4.380444 3.584 7.964444 7.992889 7.964445h384c4.408889 0 7.992889-3.584 7.992889-7.964445v-48.014222z m151.011555-353.991111h-168.903111A193.137778 193.137778 0 0 0 512 80.014222a193.706667 193.706667 0 0 0-122.993778 44.288 194.048 194.048 0 0 0-59.107555 84.707556H160.995556c-0.568889 0-0.995556 0.398222-0.995556 0.995555v-242.005333c0-17.692444 14.307556-32 32-32h640c17.692444 0 32 14.307556 32 32v242.005333c0-0.597333-0.398222-0.995556-0.995556-0.995555z"  horiz-adv-x="1024" />

    
    <glyph glyph-name="Disconnect" unicode="&#58952;" d="M878.449778 750.478222c-96.711111 96.711111-253.155556 96.711111-349.724445 0l-110.734222-110.734222 58.282667-58.311111 110.734222 110.762667c61.496889 61.496889 165.262222 67.982222 233.159111 0 67.982222-67.982222 61.468444-171.662222 0-233.130667l-110.762667-110.762667 58.396445-58.396444 110.762667 110.734222a247.523556 247.523556 0 0 1-0.113778 349.866667zM437.191111 75.975111c-61.496889-61.496889-165.262222-67.982222-233.159111 0-67.982222 67.982222-61.468444 171.662222 0 233.130667l110.734222 110.734222-58.396444 58.424889L145.635556 367.502222c-96.682667-96.682667-96.682667-253.155556 0-349.696 96.711111-96.568889 253.155556-96.711111 349.724444 0l110.734222 110.734222-58.311111 58.311112-110.592-110.876445zM224.369778 729.884444a9.187556 9.187556 0 0 1-12.913778 0L166.229333 684.657778a9.187556 9.187556 0 0 1 0-12.913778L799.772444 38.115556c3.555556-3.555556 9.386667-3.555556 12.913778 0l45.255111 45.255111a9.187556 9.187556 0 0 1 0 12.913777L224.369778 729.912889z"  horiz-adv-x="1024" />

    
    <glyph glyph-name="customer-service" unicode="&#59208;" d="M512 768C299.889778 768 128 596.110222 128 384v-359.992889c0-13.312 10.695111-24.007111 24.007111-24.007111h183.978667a64.056889 64.056889 0 0 1 64 64v208.014222a64.056889 64.056889 0 0 1-64 64h-135.964445V384c0 172.288 139.662222 312.007111 311.978667 312.007111 172.288 0 312.007111-139.719111 312.007111-312.007111v-48.014222h-136.021333a64.056889 64.056889 0 0 1-64-64v-207.985778a64.056889 64.056889 0 0 1 64-64h184.035555a23.950222 23.950222 0 0 1 23.978667 24.007111V384c0 212.110222-171.889778 384-384 384z"  horiz-adv-x="1024" />

    
    <glyph glyph-name="Diff" unicode="&#58953;" d="M470.869333 513.024a8.049778 8.049778 0 0 1-7.992889 8.106667h-48.014222a8.135111 8.135111 0 0 1-7.992889-8.106667v-97.024h-96.568889c-4.693333 0-8.590222-3.555556-8.590222-7.992889v-48.014222c0-4.323556 3.896889-7.992889 8.590222-7.992889h96.568889v-97.024c0-4.465778 3.640889-8.106667 7.992889-8.106667h48.014222a8.049778 8.049778 0 0 1 7.964445 8.106667v97.024h96.597333c4.693333 0 8.561778 3.669333 8.561778 7.992889v48.014222c0 4.437333-3.868444 7.992889-8.561778 7.992889h-96.568889v97.024z m96.568889-348.444444h-257.137778c-4.693333 0-8.590222-3.669333-8.590222-8.021334v-47.985778c0-4.352 3.896889-7.992889 8.590222-7.992888h257.137778c4.693333 0 8.561778 3.640889 8.561778 7.992888v48.014223c0 4.323556-3.868444 7.964444-8.561778 7.964444z m-8.106666 574.378666a36.522667 36.522667 0 0 1-25.856 10.752H146.318222c-20.224 0-36.579556-16.327111-36.579555-36.579555v-804.551111c0-20.224 16.355556-36.579556 36.579555-36.579556h585.130667c20.252444 0 36.579556 16.355556 36.579555 36.579556V515.072c0 9.728-3.868444 18.972444-10.752 25.856l-197.916444 198.030222z m126.378666-784.668444H192V667.420444H514.56l171.178667-171.207111v-541.923555z m217.372445 664.462222L625.493333 885.845333A36.778667 36.778667 0 0 1 600.149333 896H265.159111A9.159111 9.159111 0 0 1 256 886.869333v-64c0-5.034667 4.124444-9.159111 9.159111-9.159111h316.586667l250.254222-240.668444v-545.621334c0-5.006222 4.124444-9.130667 9.159111-9.130666h64a9.159111 9.159111 0 0 1 9.130667 9.130666V592.497778c0 9.955556-3.982222 19.427556-11.207111 26.282666z"  horiz-adv-x="1024" />

    
    <glyph glyph-name="crown" unicode="&#59209;" d="M899.612444 619.52l-194.616888-119.921778-186.595556 248.888889a8.049778 8.049778 0 0 1-12.885333 0l-186.510223-248.888889L124.302222 619.491556a8.078222 8.078222 0 0 1-12.202666-7.879112L188.501333 31.004444a16.241778 16.241778 0 0 1 16.014223-13.994666h615.082666c8.021333 0 14.904889 5.973333 15.928889 13.994666l76.373333 580.608a8.135111 8.135111 0 0 1-12.288 7.879112zM512 161.763556a112.725333 112.725333 0 0 0-112.583111 112.611555A112.725333 112.725333 0 0 0 512 386.986667a112.725333 112.725333 0 0 0 112.611556-112.583111A112.725333 112.725333 0 0 0 512 161.792z m0 160.910222a48.298667 48.298667 0 0 1 0-96.597334 48.298667 48.298667 0 0 1 0 96.597334z"  horiz-adv-x="1024" />

    
    <glyph glyph-name="DoubleRight" unicode="&#58954;" d="M536.234667 406.556444L244.48 779.349333a18.147556 18.147556 0 0 1-14.421333 6.968889H141.710222a9.102222 9.102222 0 0 1-7.196444-14.762666l303.331555-387.527112L134.513778-3.527111a9.102222 9.102222 0 0 1 7.196444-14.734222h88.348445a18.488889 18.488889 0 0 1 14.421333 6.968889l291.754667 372.679111a36.551111 36.551111 0 0 1 0 45.169777z m347.420444 0L591.928889 779.349333a18.147556 18.147556 0 0 1-14.392889 6.968889h-88.348444a9.102222 9.102222 0 0 1-7.196445-14.762666l303.303111-387.527112-303.303111-387.555555a9.102222 9.102222 0 0 1 7.196445-14.734222h88.348444a18.488889 18.488889 0 0 1 14.392889 6.968889l291.754667 372.679111a36.551111 36.551111 0 0 1 0 45.169777z"  horiz-adv-x="1024" />

    
    <glyph glyph-name="control" unicode="&#59210;" d="M880.014222 783.985778H144.014222c-17.720889 0-32-14.279111-32-31.971556v-736c0-17.720889 14.279111-32 31.971556-32h736c17.720889 0 32 14.279111 32 31.971556V751.985778c0 17.720889-14.279111 32-31.971556 32zM403.996444 212.992v-76.999111a8.021333 8.021333 0 0 0-7.992888-7.992889h-48.014223a8.021333 8.021333 0 0 0-7.964444 7.992889v76.999111a104.334222 104.334222 0 0 0-72.021333 98.986667 104.248889 104.248889 0 0 0 71.992888 99.015111V632.035556c0 4.380444 3.612444 7.992889 7.992889 7.992888h48.014223c4.408889 0 7.992889-3.612444 7.992888-7.992888v-221.013334a104.334222 104.334222 0 0 0 71.992889-98.986666 104.248889 104.248889 0 0 0-71.964444-98.986667z m279.608889 143.928889c0.199111 0 0.284444 0.085333 0.398223 0.085333v-221.013333a8.021333 8.021333 0 0 0-7.992889-7.992889h-48.014223a8.021333 8.021333 0 0 0-7.992888 7.992889v221.013333c0.199111 0 0.284444-0.113778 0.398222-0.113778a104.049778 104.049778 0 0 0 0 198.200889c-0.199111 0-0.284444-0.085333-0.398222-0.085333V632.007111c0 4.380444 3.584 7.992889 7.992888 7.992889h48.014223c4.380444 0 7.964444-3.612444 7.964444-7.992889v-76.999111c-0.170667 0-0.284444 0.085333-0.369778 0.085333a104.049778 104.049778 0 0 0 0-198.200889z m-67.612444 99.072a36.010667 36.010667 0 1 1 72.021333 0 36.010667 36.010667 0 0 1-72.021333 0z m-212.593778-126.492445l-1.507555 2.389334c0 0.113778-0.085333 0.113778-0.085334 0.199111l-0.910222 1.223111c-0.085333 0.085333-0.199111 0.199111-0.199111 0.284444a27.363556 27.363556 0 0 1-3.185778 3.612445l-0.199111 0.199111a12.060444 12.060444 0 0 1-1.223111 1.080889 17.152 17.152 0 0 1-2.588445 2.104889h-0.085333l-1.223111 0.910222-0.398222 0.284444a24.689778 24.689778 0 0 1-3.896889 2.218667c-0.199111 0.085333-0.512 0.199111-0.682667 0.398222l-1.137778 0.483556-0.967111 0.426667c-0.512 0.170667-0.995556 0.398222-1.507555 0.483555-0.398222 0.085333-0.910222 0.284444-1.308445 0.398222l-0.881777 0.284445-1.422223 0.312889c-0.199111 0.113778-0.483556 0.113778-0.682666 0.199111l-2.104889 0.398222c-0.199111 0-0.398222 0-0.597334 0.113778-0.597333 0.085333-1.109333 0.085333-1.706666 0.199111-0.199111 0-0.398222 0-0.682667 0.085333-0.824889 0-1.507556 0.113778-2.304 0.113778-0.796444 0-1.507556 0-2.304-0.113778a1.991111 1.991111 0 0 1-0.711111-0.085333 8.817778 8.817778 0 0 1-1.706667-0.199111c-0.199111 0-0.398222 0-0.568889-0.113778a15.160889 15.160889 0 0 1-2.104888-0.398222c-0.227556-0.085333-0.512-0.085333-0.711112-0.199111l-1.422222-0.284445-0.881778-0.284444c-0.398222-0.113778-0.910222-0.341333-1.308444-0.426667a8.846222 8.846222 0 0 0-1.507556-0.483555l-0.995555-0.426667-1.080889-0.483556c-0.199111-0.113778-0.512-0.199111-0.711111-0.398222-1.308444-0.711111-2.588444-1.422222-3.896889-2.218667l-0.398222-0.284444-1.194667-0.910222h-0.113778c-0.881778-0.682667-1.792-1.393778-2.588444-2.104889l-1.194667-1.080889-0.199111-0.199111a54.897778 54.897778 0 0 1-3.214222-3.612445c-0.085333-0.085333-0.199111-0.199111-0.199111-0.284444l-0.910222-1.223111c0-0.085333-0.085333-0.085333-0.085334-0.199111l-1.507555-2.389334c-0.085333-0.199111-0.199111-0.284444-0.284445-0.512-2.702222-5.091556-4.323556-10.894222-4.323555-16.981333 0-6.115556 1.621333-12.003556 4.323555-17.009778l0.284445-0.483555 1.507555-2.417778c0-0.085333 0.085333-0.085333 0.085334-0.199111l0.910222-1.194667a27.591111 27.591111 0 0 1 3.413333-3.896889l0.199111-0.199111a12.373333 12.373333 0 0 1 1.194667-1.109333c0.796444-0.796444 1.706667-1.507556 2.588444-2.104889h0.113778l1.194667-0.881778c0.085333-0.113778 0.284444-0.199111 0.398222-0.284444a24.462222 24.462222 0 0 1 3.896889-2.218667c0.199111-0.113778 0.512-0.199111 0.711111-0.398222 0.398222-0.199111 0.682667-0.284444 1.080889-0.512l1.024-0.398222c0.483556-0.199111 0.995556-0.398222 1.479111-0.483556l1.308444-0.426667 0.910223-0.284444 1.393777-0.284444c0.199111-0.113778 0.483556-0.113778 0.711112-0.227556 0.682667-0.085333 1.393778-0.284444 2.076444-0.398222 0.199111 0 0.398222 0 0.597333-0.085334 0.597333-0.113778 1.109333-0.113778 1.706667-0.199111a1.991111 1.991111 0 0 0 0.711111-0.113777c0.796444 0 1.507556-0.085333 2.275556-0.085334 0.824889 0 1.507556 0 2.332444 0.085334 0.170667 0 0.369778 0 0.682667 0.113777a8.817778 8.817778 0 0 1 1.706666 0.199111c0.199111 0 0.398222 0 0.568889 0.085334a15.644444 15.644444 0 0 1 2.133334 0.398222c0.199111 0.113778 0.483556 0.113778 0.682666 0.199111l1.422223 0.284445 0.881777 0.312888 1.308445 0.426667a8.846222 8.846222 0 0 0 1.507555 0.483556l0.995556 0.398222 1.109333 0.512c0.199111 0.085333 0.483556 0.199111 0.682667 0.398222 1.308444 0.682667 2.588444 1.393778 3.896889 2.190222l0.398222 0.284445 1.223111 0.910222h0.085333l2.588445 2.104889 1.223111 1.109333 0.199111 0.199111c1.080889 1.109333 2.190222 2.389333 3.185778 3.584 0.113778 0.113778 0.199111 0.199111 0.199111 0.284445l0.910222 1.223111c0 0.113778 0.085333 0.113778 0.085334 0.199111l1.507555 2.417778 0.284445 0.483555c2.702222 5.12 4.323556 10.894222 4.323555 17.009778a36.039111 36.039111 0 0 1-4.608 17.493333z"  horiz-adv-x="1024" />

    
    <glyph glyph-name="Down" unicode="&#58955;" d="M937.130667 676.551111h-85.703111c-5.831111 0-11.320889-2.844444-14.762667-7.537778L512 221.468444 187.306667 669.013333a18.346667 18.346667 0 0 1-14.734223 7.537778H86.840889c-7.424 0-11.776-8.448-7.424-14.506667l402.972444-555.52a36.465778 36.465778 0 0 1 59.079111 0l402.972445 555.52a9.102222 9.102222 0 0 1-7.310222 14.506667z"  horiz-adv-x="1024" />

    
    <glyph glyph-name="database" unicode="&#59211;" d="M832 832H192c-17.692444 0-32-14.307556-32-32v-224h704V800c0 17.692444-14.307556 32-32 32zM288 664.007111a39.992889 39.992889 0 1 0 0 79.957333 39.992889 39.992889 0 0 0 0-79.957333z m-128-696.007111c0-17.692444 14.307556-32 32-32h640c17.692444 0 32 14.307556 32 32V192H160v-224z m128 135.992889a39.992889 39.992889 0 1 0 0.028444-79.957333 39.992889 39.992889 0 0 0-0.028444 79.957333z m-128 152.007111h704v256H160v-256z m128 167.992889a39.992889 39.992889 0 1 0 0.028444-79.957333 39.992889 39.992889 0 0 0-0.028444 79.957333z"  horiz-adv-x="1024" />

    
    <glyph glyph-name="DownSquare" unicode="&#58956;" d="M504.604444 216.348444a9.102222 9.102222 0 0 1 14.734223 0l203.434666 281.144889a9.187556 9.187556 0 0 1-7.424 14.506667h-53.617777c-11.662222 0-22.755556-5.603556-29.582223-15.075556L512 330.752l-120.234667 166.172444a36.408889 36.408889 0 0 1-29.582222 15.075556h-53.617778a9.187556 9.187556 0 0 1-7.424-14.506667l203.434667-281.144889zM932.579556 841.102222H91.448889c-20.224 0-36.579556-16.327111-36.579556-36.551111v-841.130667c0-20.252444 16.355556-36.579556 36.579556-36.579555h841.130667c20.252444 0 36.579556 16.355556 36.579555 36.579555V804.551111c0 20.224-16.355556 36.579556-36.579555 36.579556zM886.897778 9.102222H137.159111V758.869333H886.897778V9.102222z"  horiz-adv-x="1024" />

    
    <glyph glyph-name="delete" unicode="&#59212;" d="M864 640h-128V720.014222a64.056889 64.056889 0 0 1-64 64h-320a64.056889 64.056889 0 0 1-64-64V640h-128C142.307556 640 128 625.692444 128 608v-32c0-4.408889 3.612444-7.992889 7.992889-7.992889h60.416l24.689778-523.008a64.056889 64.056889 0 0 1 63.914666-61.013333h453.973334c34.218667 0 62.293333 26.823111 63.914666 61.013333l24.689778 523.008h60.416a8.021333 8.021333 0 0 1 7.992889 7.992889v32C896 625.692444 881.692444 640 864 640z m-199.992889 0H359.992889V711.992889h304.014222V640z"  horiz-adv-x="1024" />

    
    <glyph glyph-name="DownCircle" unicode="&#58957;" d="M715.463111 506.311111h-53.617778c-11.662222 0-22.755556-5.603556-29.582222-15.075555L512 325.063111l-120.234667 166.172445a36.408889 36.408889 0 0 1-29.582222 15.075555h-53.617778a9.187556 9.187556 0 0 1-7.424-14.506667l203.434667-281.144888a9.102222 9.102222 0 0 1 14.734222 0l203.434667 281.144888a9.102222 9.102222 0 0 1-7.310222 14.506667zM512 896C229.262222 896 0 666.737778 0 384s229.262222-512 512-512 512 229.262222 512 512S794.737778 896 512 896z m0-937.130667C277.248-41.130667 86.869333 149.248 86.869333 384S277.248 809.130667 512 809.130667 937.130667 618.752 937.130667 384 746.752-41.130667 512-41.130667z"  horiz-adv-x="1024" />

    
    <glyph glyph-name="copy" unicode="&#59213;" d="M832 832H295.992889a8.021333 8.021333 0 0 1-7.992889-7.992889V768c0-4.408889 3.612444-7.992889 7.992889-7.992889h496.014222V71.964444c0-4.380444 3.584-7.992889 7.992889-7.992888h56.007111a8.021333 8.021333 0 0 1 7.992889 7.992888V800c0 17.692444-14.307556 32-32 32z m-128-128h-512c-17.692444 0-32-14.307556-32-32v-530.688c0-8.533333 3.413333-16.611556 9.386667-22.613333l173.312-173.283556c2.190222-2.218667 4.693333-4.010667 7.395555-5.518222v-1.905778h4.209778c3.498667-1.28 7.196444-1.991111 11.008-1.991111H704c17.692444 0 32 14.307556 32 32V672c0 17.692444-14.307556 32-32 32zM382.008889 0h-0.199111l-149.816889 149.788444v0.199112h150.016V0z"  horiz-adv-x="1024" />

    
    <glyph glyph-name="Download" unicode="&#58958;" d="M504.803556 213.902222a9.102222 9.102222 0 0 1 11.178666-2.56 9.130667 9.130667 0 0 1 3.214222 2.56l128 161.962667a9.102222 9.102222 0 0 1-7.196444 14.734222h-84.679111V777.386667a9.159111 9.159111 0 0 1-9.159111 9.130666h-68.551111a9.159111 9.159111 0 0 1-9.159111-9.130666v-386.645334h-84.48a9.102222 9.102222 0 0 1-7.168-14.734222l128-162.048z m425.472 40.021334h-68.551112a9.159111 9.159111 0 0 1-9.159111-9.159112v-175.985777H171.406222v176.014222a9.159111 9.159111 0 0 1-9.130666 9.130667h-68.551112a9.159111 9.159111 0 0 1-9.159111-9.159112v-226.275555c0-20.224 16.327111-36.551111 36.579556-36.551111H902.826667c20.195556 0 36.551111 16.327111 36.551111 36.551111v226.304a9.159111 9.159111 0 0 1-9.130667 9.130667z"  horiz-adv-x="1024" />

    
    <glyph glyph-name="diff" unicode="&#59214;" d="M854.186667 589.397333l-242.887111 233.699556c-5.973333 5.688889-13.909333 8.903111-22.186667 8.903111H295.964444a8.021333 8.021333 0 0 1-7.992888-7.992889V768c0-4.408889 3.612444-7.992889 7.992888-7.992889h277.020445l218.993778-210.602667V71.964444c0-4.380444 3.584-7.992889 7.992889-7.992888h56.007111a8.021333 8.021333 0 0 1 7.992889 7.992888V566.414222c0 8.675556-3.498667 16.981333-9.813334 22.983111zM553.415111 694.613333a31.943111 31.943111 0 0 1-22.584889 9.386667H192c-17.692444 0-32-14.307556-32-32v-704c0-17.692444 14.307556-32 32-32h512c17.692444 0 32 14.307556 32 32V498.688c0 8.533333-3.413333 16.611556-9.386667 22.613333l-173.226666 173.312z m14.620445-551.623111c0-3.783111-3.413333-6.997333-7.509334-6.997333h-224.995555c-4.096 0-7.509333 3.214222-7.509334 6.997333v42.012445c0 3.783111 3.413333 6.997333 7.509334 6.997333h224.995555c4.096 0 7.509333-3.214222 7.509334-6.997333v-42.012445z m0 220.017778c0-3.811556-3.413333-6.997333-7.509334-6.997333h-84.48v-84.906667c0-3.896889-3.128889-7.111111-7.025778-7.111111h-41.984a7.111111 7.111111 0 0 0-6.997333 7.111111v84.906667h-84.508444c-4.096 0-7.509333 3.185778-7.509334 6.997333v41.984c0 3.896889 3.413333 6.997333 7.509334 6.997333h84.48V496.924444a7.111111 7.111111 0 0 0 7.025777 7.111112h41.984c3.896889 0 6.997333-3.214222 6.997334-7.111112v-84.906666h84.508444c4.096 0 7.509333-3.100444 7.509334-6.997334v-41.984z"  horiz-adv-x="1024" />

    
    <glyph glyph-name="DotChart" unicode="&#58959;" d="M941.681778 63.971556H155.420444V777.102222a9.159111 9.159111 0 0 1-9.159111 9.159111h-64a9.159111 9.159111 0 0 1-9.130666-9.159111v-786.289778c0-5.034667 4.096-9.130667 9.130666-9.130666h859.420445a9.159111 9.159111 0 0 1 9.159111 9.130666v64a9.159111 9.159111 0 0 1-9.159111 9.159112zM256 278.812444a73.159111 73.159111 0 1 1 146.289778 0 73.159111 73.159111 0 0 1-146.289778 0z m134.855111 256a54.869333 54.869333 0 1 1 109.710222 0 54.869333 54.869333 0 0 1-109.710222 0z m180.593778-260.551111a109.710222 109.710222 0 1 1 219.392 0 109.710222 109.710222 0 0 1-219.392 0z m169.130667 358.855111a64 64 0 1 1 128 0 64 64 0 0 1-128 0z"  horiz-adv-x="1024" />

    
    <glyph glyph-name="dislike" unicode="&#59215;" d="M885.902222 405.703111a128.682667 128.682667 0 0 1-20.707555 114.688 128.682667 128.682667 0 0 1-20.707556 114.688 128.568889 128.568889 0 0 1-72.903111 155.392 66.104889 66.104889 0 0 1-26.481778 5.404445H273.009778v-427.975112h0.284444l85.816889-310.812444a116.252444 116.252444 0 0 1 111.786667-85.077333 106.382222 106.382222 0 0 1 77.909333 33.393777 106.268444 106.268444 0 0 1 29.496889 79.388445l-6.001778 122.908444h239.900445c12.088889 0 23.893333 3.214222 34.304 9.301334 40.391111 23.495111 65.479111 66.104889 65.479111 110.990222 0 28.302222-9.272889 55.495111-26.083556 77.710222zM112.014222 763.989333v-363.975111c0-17.720889 14.279111-32 31.971556-32h65.024V795.960889H144.014222c-17.720889 0-32-14.279111-32-32z"  horiz-adv-x="1024" />

    
    <glyph glyph-name="Enter" unicode="&#58960;" d="M914.318222 774.883556h-68.579555a9.159111 9.159111 0 0 1-9.159111-9.159112v-591.985777H281.173333V257.137778a9.159111 9.159111 0 0 1-14.876444 7.196444l-162.161778-128a9.130667 9.130667 0 0 1 0-14.392889l162.161778-128a9.159111 9.159111 0 0 1 14.876444 7.196445v85.703111h569.116445a73.216 73.216 0 0 1 73.159111 73.159111V765.724444a9.159111 9.159111 0 0 1-9.159111 9.159112z"  horiz-adv-x="1024" />

    
    <glyph glyph-name="dashboard" unicode="&#59216;" d="M924.814222 510.407111a446.691556 446.691556 0 0 1-96 142.392889A446.691556 446.691556 0 0 1 512 784.014222 446.691556 446.691556 0 0 1 195.214222 652.8 446.691556 446.691556 0 0 1 64 336.014222c0-132.721778 58.311111-257.706667 159.886222-343.125333l1.706667-1.393778c5.802667-4.807111 13.084444-7.509333 20.593778-7.509333h531.712c7.509333 0 14.791111 2.702222 20.593777 7.509333l1.706667 1.422222a447.431111 447.431111 0 0 1 159.800889 343.068445c0 60.501333-11.889778 119.125333-35.185778 174.421333z m-442.823111 153.6c0 4.380444 3.612444 7.992889 8.021333 7.992889h43.975112c4.408889 0 8.021333-3.612444 8.021333-7.992889v-80.014222a8.021333 8.021333 0 0 0-8.021333-7.992889h-43.975112a8.021333 8.021333 0 0 0-8.021333 7.992889V664.007111zM269.994667 313.998222a8.021333 8.021333 0 0 0-7.992889-7.992889H181.987556a8.021333 8.021333 0 0 0-7.964445 7.992889v44.003556c0 4.408889 3.584 7.992889 7.964445 7.992889h80.014222c4.408889 0 7.992889-3.584 7.992889-7.992889v-44.003556z m90.709333 204.515556l-31.089778-31.118222a8.021333 8.021333 0 0 0-11.320889 0l-56.604444 56.604444a8.021333 8.021333 0 0 0 0 11.292444l31.118222 31.118223a8.021333 8.021333 0 0 0 11.292445 0l56.604444-56.604445a8.021333 8.021333 0 0 0 0-11.292444z m291.100444-83.626667l-84.48-84.48a55.864889 55.864889 0 0 0-32.711111-66.275555 56.007111 56.007111 0 1 0-6.912 105.870222l84.48 84.48a8.021333 8.021333 0 0 0 11.320889 0l28.302222-28.273778a8.021333 8.021333 0 0 0 0-11.292444z m43.008 52.423111l-31.118222 31.089778a8.021333 8.021333 0 0 0 0 11.292444l56.604445 56.604445a8.021333 8.021333 0 0 0 11.292444 0l31.118222-31.089778a8.021333 8.021333 0 0 0 0-11.320889l-56.604444-56.604444a8.021333 8.021333 0 0 0-11.292445 0z m151.182223-173.312a8.021333 8.021333 0 0 0-7.992889-7.992889h-80.014222a8.021333 8.021333 0 0 0-7.964445 7.992889v44.003556c0 4.408889 3.584 7.992889 7.964445 7.992889h80.014222c4.408889 0 7.992889-3.584 7.992889-7.992889v-44.003556z"  horiz-adv-x="1024" />

    
    <glyph glyph-name="Dollar" unicode="&#58961;" d="M512 896C229.262222 896 0 666.737778 0 384s229.262222-512 512-512 512 229.262222 512 512S794.737778 896 512 896z m0-937.130667C277.248-41.130667 86.869333 149.248 86.869333 384S277.248 809.130667 512 809.130667 937.130667 618.752 937.130667 384 746.752-41.130667 512-41.130667z m54.499556 451.640889l-29.013334 6.741334v153.486222c43.434667-5.944889 70.286222-33.137778 74.865778-66.503111 0.568889-4.551111 4.437333-7.879111 9.016889-7.879111h51.313778a9.244444 9.244444 0 0 1 9.159111 10.040888c-6.997333 71.196444-65.621333 116.906667-143.900445 124.814223V668.558222a9.159111 9.159111 0 0 1-9.130666 9.159111h-32.142223a9.159111 9.159111 0 0 1-9.102222-9.159111V630.897778c-80.924444-7.907556-144.241778-52.593778-144.241778-136.021334 0-77.255111 56.888889-114.517333 116.679112-128.796444l28.216888-7.196444v-163.072c-50.517333 6.741333-78.848 33.706667-84.679111 70.058666a9.102222 9.102222 0 0 1-9.016889 7.537778h-52.821333a9.159111 9.159111 0 0 1-9.130667-9.955556c5.12-62.862222 52.792889-120.689778 154.510223-128.113777v-35.896889c0-5.006222 4.124444-9.102222 9.159111-9.102222h32.426666a9.187556 9.187556 0 0 1 9.159112 9.244444l-0.227556 36.209778c89.486222 7.879111 153.486222 55.751111 153.486222 141.710222-0.113778 79.331556-50.517333 114.744889-124.586666 133.034667z m-78.392889 18.517334a167.537778 167.537778 0 0 0-17.123556 5.688888c-38.627556 13.966222-56.604444 36.494222-56.604444 65.507556 0 41.500444 31.459556 65.137778 73.728 70.542222v-141.738666z m49.379555-233.585778v152.775111c3.527111-1.024 6.741333-1.820444 10.069334-2.503111 54.044444-16.469333 72.220444-39.310222 72.220444-74.410667 0-44.657778-33.592889-71.537778-82.289778-75.889778z"  horiz-adv-x="1024" />

    
    <glyph glyph-name="exclamation-circle" unicode="&#59217;" d="M512 832C264.590222 832 64 631.409778 64 384S264.590222-64 512-64 960 136.590222 960 384 759.409778 832 512 832z m-32-231.992889c0 4.380444 3.612444 7.992889 7.992889 7.992889h48.014222c4.380444 0 7.992889-3.612444 7.992889-7.992889v-272.014222a8.021333 8.021333 0 0 0-7.992889-7.992889h-48.014222a8.021333 8.021333 0 0 0-7.992889 7.992889v272.014222zM512 160a48.014222 48.014222 0 0 0 0 96 48.014222 48.014222 0 0 0 0-96z"  horiz-adv-x="1024" />

    
    <glyph glyph-name="Environment" unicode="&#58962;" d="M903.566222 638.663111a414.236444 414.236444 0 0 1-91.306666 132.238222 423.822222 423.822222 0 0 1-135.111112 88.917334A428.629333 428.629333 0 0 1 512.028444 892.501333c-57.258667 0-112.810667-10.979556-165.148444-32.568889a425.728 425.728 0 0 1-135.111111-88.917333 415.544889 415.544889 0 0 1-91.306667-132.238222 405.902222 405.902222 0 0 1-33.564444-162.275556c0-80.696889 19.285333-161.024 57.230222-238.506666 30.520889-62.293333 73.159111-122.965333 126.862222-180.679111 91.761778-98.531556 188.017778-158.748444 215.324445-174.876445 7.736889-4.551111 16.583111-6.968889 25.6-6.968889 8.903111 0 17.692444 2.275556 25.6 6.968889 27.306667 16.128 123.534222 76.344889 215.324444 174.876445 53.703111 57.571556 96.312889 118.385778 126.862222 180.679111 38.144 77.368889 57.457778 157.582222 57.457778 238.392889a405.902222 405.902222 0 0 1-33.592889 162.275555zM512-36.892444c-75.320889 47.900444-342.869333 237.511111-342.869333 513.28 0 89.031111 35.555556 172.686222 100.124444 235.776C334.08 775.367111 420.238222 810.211556 512 810.211556c91.761778 0 177.92-34.844444 242.744889-98.161778 64.568889-62.976 100.124444-146.631111 100.124444-235.662222 0-275.768889-267.576889-465.351111-342.869333-513.251556z m0 705.393777a201.159111 201.159111 0 1 1 0-402.289777 201.159111 201.159111 0 0 1 0 402.289777z m90.510222-291.669333A127.601778 127.601778 0 0 0 512 339.370667c-34.190222 0-66.275556 13.368889-90.538667 37.461333a127.573333 127.573333 0 0 0-37.461333 90.538667c0 34.133333 13.368889 66.275556 37.489778 90.510222A127.061333 127.061333 0 0 0 512 595.342222c34.161778 0 66.275556-13.255111 90.510222-37.489778A127.061333 127.061333 0 0 0 640 467.342222c0-34.190222-13.255111-66.275556-37.489778-90.538666z"  horiz-adv-x="1024" />

    
    <glyph glyph-name="down-circle" unicode="&#59218;" d="M512 832C264.590222 832 64 631.409778 64 384S264.590222-64 512-64 960 136.590222 960 384 759.409778 832 512 832z m184.490667-353.706667l-178.005334-245.987555a7.964444 7.964444 0 0 0-12.885333 0l-178.005333 245.987555a8.021333 8.021333 0 0 0 6.513777 12.714667h46.904889c10.183111 0 19.911111-4.920889 25.884445-13.198222L512 332.401778l105.187556 145.408c6.001778 8.277333 15.616 13.198222 25.912888 13.198222h46.904889c6.485333 0 10.296889-7.395556 6.485334-12.714667z"  horiz-adv-x="1024" />

    
    <glyph glyph-name="Edit" unicode="&#58963;" d="M221.354667 109.795556c2.275556 0 4.551111 0.256 6.855111 0.568888l192.227555 33.735112a11.207111 11.207111 0 0 1 6.058667 3.214222L910.961778 631.751111a11.377778 11.377778 0 0 1 0 16.128l-189.952 190.065778a11.320889 11.320889 0 0 1-8.106667 3.299555 11.292444 11.292444 0 0 1-8.106667-3.299555L220.330667 353.479111a11.605333 11.605333 0 0 1-3.214223-6.058667l-33.706666-192.227555a38.286222 38.286222 0 0 1 10.752-34.048c7.537778-7.338667 17.038222-11.320889 27.192889-11.320889z m77.027555 199.338666L712.903111 723.541333l83.768889-83.768889-414.520889-414.435555-101.603555-17.92 17.834666 101.717333z m634.168889-295.310222H91.420444c-20.224 0-36.579556-16.355556-36.579555-36.579556v-41.130666c0-5.034667 4.124444-9.159111 9.159111-9.159111h896a9.159111 9.159111 0 0 1 9.130667 9.159111V-22.755556c0 20.224-16.355556 36.579556-36.579556 36.579556z"  horiz-adv-x="1024" />

    
    <glyph glyph-name="down-square" unicode="&#59219;" d="M880.014222 783.985778H144.014222c-17.720889 0-32-14.279111-32-31.971556v-736c0-17.720889 14.279111-32 31.971556-32h736c17.720889 0 32 14.279111 32 31.971556V751.985778c0 17.720889-14.279111 32-31.971556 32z m-183.523555-300.686222l-178.005334-245.987556a7.936 7.936 0 0 0-12.885333 0l-178.005333 245.987556a8.021333 8.021333 0 0 0 6.513777 12.714666h46.904889c10.183111 0 19.911111-4.920889 25.884445-13.226666L512 337.408l105.187556 145.379556c6.001778 8.305778 15.616 13.198222 25.912888 13.198222h46.904889c6.485333 0 10.296889-7.395556 6.485334-12.686222z"  horiz-adv-x="1024" />

    
    <glyph glyph-name="DoubleLeft" unicode="&#58964;" d="M238.762667 384L542.065778 771.584a9.102222 9.102222 0 0 1-7.196445 14.762667h-88.348444a18.488889 18.488889 0 0 1-14.392889-6.968889L140.373333 406.528a36.551111 36.551111 0 0 1 0-45.141333l291.754667-372.679111c3.413333-4.465778 8.817778-6.968889 14.392889-6.968889h88.348444a9.102222 9.102222 0 0 1 7.196445 14.734222L238.762667 384.028444z m347.420444 0L889.514667 771.584a9.102222 9.102222 0 0 1-7.196445 14.762667h-88.348444a18.488889 18.488889 0 0 1-14.392889-6.968889L487.793778 406.528a36.551111 36.551111 0 0 1 0-45.141333l291.783111-372.679111c3.413333-4.465778 8.789333-6.968889 14.392889-6.968889h88.32a9.102222 9.102222 0 0 1 7.224889 14.734222L586.183111 384.028444z"  horiz-adv-x="1024" />

    
    <glyph glyph-name="edit" unicode="&#59220;" d="M880.014222 60.017778H144.014222c-17.720889 0-32-14.307556-32-32.028445v-35.982222c0-4.408889 3.584-8.021333 7.964445-8.021333h784.014222a8.021333 8.021333 0 0 1 8.021333 8.021333v35.982222c0 17.720889-14.307556 32-32.028444 32zM257.706667 143.985778c1.991111 0 3.982222 0.199111 5.973333 0.483555l168.220444 29.496889a9.813333 9.813333 0 0 1 5.290667 2.816l423.907556 423.879111a9.955556 9.955556 0 0 1 0 14.108445L694.897778 781.112889a9.898667 9.898667 0 0 1-7.111111 2.872889 9.898667 9.898667 0 0 1-7.111111-2.872889L256.824889 357.205333a10.154667 10.154667 0 0 1-2.787556-5.290666l-29.496889-168.220445a33.507556 33.507556 0 0 1 9.386667-29.781333c6.599111-6.428444 14.904889-9.927111 23.808-9.927111z"  horiz-adv-x="1024" />

    
    <glyph glyph-name="ExclamationCircle" unicode="&#58965;" d="M512 896C229.262222 896 0 666.737778 0 384s229.262222-512 512-512 512 229.262222 512 512S794.737778 896 512 896z m0-937.130667C277.248-41.130667 86.869333 149.248 86.869333 384S277.248 809.130667 512 809.130667 937.130667 618.752 937.130667 384 746.752-41.130667 512-41.130667zM457.102222 182.869333a54.840889 54.840889 0 1 1 109.710222 0 54.840889 54.840889 0 0 1-109.681777 0z m27.448889 128h54.869333a9.159111 9.159111 0 0 1 9.130667 9.130667V630.869333A9.159111 9.159111 0 0 1 539.420444 640h-54.869333a9.159111 9.159111 0 0 1-9.130667-9.130667V320c0-5.034667 4.096-9.130667 9.130667-9.130667z"  horiz-adv-x="1024" />

    
    <glyph glyph-name="eye" unicode="&#59221;" d="M396.003556 384a111.985778 111.985778 0 1 1 224 0 111.985778 111.985778 0 0 1-224 0z m546.190222 25.799111C847.416889 609.479111 704.142222 710.001778 512 710.001778c-192.199111 0-335.388444-100.494222-430.193778-300.288a60.302222 60.302222 0 0 1 0-51.512889C176.64 158.520889 319.886222 57.998222 512 57.998222c192.199111 0 335.416889 100.494222 430.193778 300.288 7.708444 16.213333 7.708444 35.015111 0 51.512889zM508.017778 207.985778a176.014222 176.014222 0 1 0 0 352.028444 176.014222 176.014222 0 0 0 0-352.028444z"  horiz-adv-x="1024" />

    
    <glyph glyph-name="Ellipsis" unicode="&#58966;" d="M128 384.995556a64 64 0 1 1 127.971556 0 64 64 0 0 1-127.971556 0z m320 0a64 64 0 1 1 128 0 64 64 0 0 1-128 0z m320 0a64 64 0 1 1 128 0 64 64 0 0 1-128 0z"  horiz-adv-x="1024" />

    
    <glyph glyph-name="dollar-circle" unicode="&#59222;" d="M512 832C264.590222 832 64 631.409778 64 384S264.590222-64 512-64 960 136.590222 960 384 759.409778 832 512 832z m22.300444-665.201778l0.199112-31.687111a8.106667 8.106667 0 0 0-7.992889-8.106667h-28.416a8.021333 8.021333 0 0 0-7.964445 7.992889V166.4c-88.832 6.599111-130.616889 57.173333-135.111111 112.184889a8.021333 8.021333 0 0 0 7.964445 8.704h46.222222a7.964444 7.964444 0 0 0 7.907555-6.599111c5.091556-31.687111 29.781333-55.381333 74.097778-61.297778V362.097778l-24.718222 6.314666c-52.280889 12.487111-102.115556 45.084444-102.115556 112.696889 0 72.903111 55.438222 112.071111 126.236445 118.983111v32.995556c0 4.408889 3.584 8.021333 7.964444 8.021333h28.131556c4.408889 0 7.992889-3.612444 7.992889-8.021333v-32.711111c68.494222-6.883556 119.893333-46.876444 125.895111-109.169778a7.964444 7.964444 0 0 0-7.992889-8.817778h-44.913778a7.964444 7.964444 0 0 0-7.879111 6.912c-3.982222 29.212444-27.420444 52.992-65.507556 58.197334v-134.286223l25.400889-5.916444c64.796444-15.985778 108.913778-46.990222 108.913778-116.394667 0-75.292444-56.035556-117.304889-134.314667-124.103111z m-107.690666 318.890667c0-25.400889 15.701333-45.084444 49.493333-57.287111 4.693333-1.905778 9.386667-3.413333 14.990222-5.006222v124.017777c-36.892444-4.721778-64.483556-25.400889-64.483555-61.724444z m116.48-135.196445a141.767111 141.767111 0 0 0-8.789334 2.218667v-133.688889c42.609778 3.783111 71.992889 27.192889 71.992889 66.389334 0 30.691556-15.900444 50.688-63.203555 65.080888z"  horiz-adv-x="1024" />

    
    <glyph glyph-name="Control" unicode="&#58967;" d="M932.579556 841.016889H91.448889c-20.224 0-36.579556-16.355556-36.579556-36.579556v-841.159111c0-20.195556 16.355556-36.551111 36.579556-36.551111h841.130667c20.252444 0 36.579556 16.327111 36.579555 36.551111V804.437333c0 20.224-16.355556 36.579556-36.579555 36.579556z m-45.710223-832H137.159111V758.727111h749.710222v-749.710222z m-571.448889 179.427555v-88.007111c0-5.034667 4.152889-9.159111 9.159112-9.159111h54.869333a9.159111 9.159111 0 0 1 9.130667 9.159111v88.007111a120.604444 120.604444 0 0 0-73.130667 0z m73.159112 226.275556V667.306667a9.159111 9.159111 0 0 1-9.130667 9.102222H324.551111a9.159111 9.159111 0 0 1-9.130667-9.102222v-252.586667a120.689778 120.689778 0 0 0 73.130667 0z m-73.130667-226.275556a120.604444 120.604444 0 0 1 73.130667 0 118.897778 118.897778 0 1 1-155.420445 113.152 118.897778 118.897778 0 0 1 82.289778-113.152z m0.113778 132.209778c0.341333 0.682667 0.796444 1.393778 1.137777 2.076445v0.113777l1.365334 2.048 0.341333 0.568889c0.341333 0.568889 0.796444 1.024 1.137778 1.592889 0.142222 0.113778 0.256 0.341333 0.369778 0.455111 0.568889 0.682667 1.024 1.251556 1.592889 1.848889l0.341333 0.341334 1.365333 1.365333 0.455111 0.455111c0.568889 0.568889 1.137778 1.024 1.848889 1.592889a21.504 21.504 0 0 0 1.934222 1.479111l0.568889 0.341333c0.568889 0.369778 1.024 0.824889 1.592889 1.137778 0.113778 0.142222 0.341333 0.256 0.455111 0.369778 0.682667 0.455111 1.365333 0.796444 2.190223 1.251555 0.113778 0.113778 0.341333 0.113778 0.455111 0.227556 0.568889 0.341333 1.137778 0.568889 1.820444 0.910222l0.682667 0.341334c0.796444 0.341333 1.479111 0.682667 2.275555 0.910222a19.939556 19.939556 0 0 0 2.417778 0.796444c0.227556 0.113778 0.455111 0.113778 0.682667 0.227556a11.719111 11.719111 0 0 0 1.934222 0.483555c0.227556 0 0.341333 0.085333 0.568889 0.085334 0.796444 0.256 1.706667 0.369778 2.531555 0.483555 0.227556 0 0.341333 0 0.568889 0.113778 0.682667 0.113778 1.365333 0.113778 2.048 0.227556h0.682667c0.910222 0 1.706667 0.113778 2.645333 0.113777 0.910222 0 1.706667 0 2.616889-0.113777h0.682667c0.682667 0 1.365333-0.113778 2.048-0.227556 0.227556 0 0.341333 0 0.568889-0.113778 0.824889-0.113778 1.706667-0.227556 2.531555-0.483555 0.227556 0 0.341333-0.085333 0.568889-0.085334l1.934222-0.483555c0.227556-0.113778 0.455111-0.113778 0.682667-0.227556a19.626667 19.626667 0 0 0 2.417778-0.796444c0.796444-0.227556 1.479111-0.568889 2.275555-0.910222l0.682667-0.341334a13.368889 13.368889 0 0 0 1.848889-0.910222c0.113778-0.113778 0.312889-0.113778 0.455111-0.227556a20.536889 20.536889 0 0 0 2.161778-1.251555l0.455111-0.341333c0.568889-0.341333 1.137778-0.682667 1.592889-1.137778 0.227556-0.142222 0.341333-0.256 0.568889-0.369778 0.682667-0.455111 1.365333-1.024 1.962666-1.479111 0.568889-0.455111 1.251556-1.024 1.820445-1.592889l0.455111-0.455111 1.365333-1.365333 0.341334-0.341334c0.568889-0.568889 1.137778-1.28 1.592889-1.848889 0.142222-0.113778 0.227556-0.341333 0.369777-0.455111a8.049778 8.049778 0 0 0 1.137778-1.592889l0.341333-0.568889 1.365334-2.048s0-0.113778 0.113778-0.113777a41.358222 41.358222 0 0 0 1.137777-40.248889c-0.341333-0.682667-0.796444-1.365333-1.137777-2.048 0 0 0-0.113778-0.113778-0.113778l-1.365334-2.048-0.341333-0.568889c-0.341333-0.568889-0.796444-1.052444-1.137778-1.621333-0.142222-0.113778-0.227556-0.341333-0.341333-0.455111-0.568889-0.682667-1.052444-1.251556-1.621333-1.820445l-0.341334-0.341333-1.365333-1.365333-0.455111-0.455112c-0.568889-0.568889-1.137778-1.052444-1.820445-1.621333a22.613333 22.613333 0 0 0-1.962666-1.479111l-0.568889-0.341333c-0.568889-0.341333-1.024-0.796444-1.592889-1.137778l-0.455111-0.341333c-0.682667-0.455111-1.365333-0.796444-2.161778-1.251556-0.142222-0.113778-0.341333-0.113778-0.455111-0.227556-0.568889-0.341333-1.137778-0.568889-1.848889-0.910222l-0.682667-0.369778c-0.796444-0.341333-1.479111-0.682667-2.275555-0.910222-0.796444-0.341333-1.592889-0.568889-2.417778-0.796444-0.227556-0.113778-0.455111-0.113778-0.682667-0.227556a12.003556 12.003556 0 0 0-1.934222-0.455111c-0.227556 0-0.341333-0.113778-0.568889-0.113778-0.796444-0.227556-1.706667-0.341333-2.503111-0.455111-0.256 0-0.369778 0-0.568889-0.113778-0.711111-0.113778-1.393778-0.113778-2.076444-0.227555h-0.682667c-0.910222 0-1.706667-0.113778-2.616889-0.113778-0.938667 0-1.706667 0-2.645333 0.113778h-0.682667a12.629333 12.629333 0 0 0-2.048 0.227555c-0.227556 0-0.341333 0-0.568889 0.113778-0.796444 0.113778-1.706667 0.227556-2.531555 0.455111-0.227556 0-0.341333 0.113778-0.568889 0.113778-0.682667 0.113778-1.365333 0.341333-1.934222 0.455111-0.227556 0.113778-0.455111 0.113778-0.682667 0.227556-0.796444 0.227556-1.592889 0.455111-2.417778 0.796444-0.796444 0.227556-1.479111 0.568889-2.275555 0.910222l-0.682667 0.341334a13.368889 13.368889 0 0 0-1.820444 0.938666c-0.113778 0.113778-0.341333 0.113778-0.455111 0.227556a21.845333 21.845333 0 0 0-2.190223 1.251556l-0.455111 0.341333a8.049778 8.049778 0 0 0-1.592889 1.137778l-0.568889 0.341333c-0.682667 0.455111-1.393778 1.024-1.962666 1.479111a23.04 23.04 0 0 0-1.820445 1.621333l-0.455111 0.455112-1.365333 1.365333-0.341333 0.341333a22.954667 22.954667 0 0 0-1.592889 1.820445l-0.341334 0.455111a8.248889 8.248889 0 0 0-1.137777 1.592889l-0.369778 0.568889-1.365334 2.076444v0.113778c-0.455111 0.682667-0.796444 1.365333-1.137777 2.048a41.329778 41.329778 0 0 0 0 38.172444zM635.448889 352.995556v-252.586667c0-5.006222 4.124444-9.102222 9.130667-9.102222h54.869333a9.159111 9.159111 0 0 1 9.130667 9.102222v252.586667a120.604444 120.604444 0 0 0-73.130667 0z m73.130667 226.304V667.278222a9.159111 9.159111 0 0 1-9.130667 9.159111H644.551111a9.159111 9.159111 0 0 1-9.130667-9.159111v-87.978666a117.191111 117.191111 0 0 0 36.579556 5.688888c12.8 0 25.031111-2.048 36.551111-5.688888zM635.448889 352.995556a120.604444 120.604444 0 0 1 73.130667 0 118.897778 118.897778 0 0 1 82.289777 113.152 118.897778 118.897778 0 1 1-155.420444-113.152z m0.113778 132.238222c0.341333 0.682667 0.796444 1.365333 1.137777 2.048v0.113778l1.365334 2.076444 0.341333 0.568889c0.341333 0.568889 0.824889 1.024 1.137778 1.592889l0.369778 0.455111c0.568889 0.682667 1.024 1.251556 1.592889 1.820444l0.341333 0.341334 1.365333 1.393777 0.455111 0.455112c0.568889 0.568889 1.137778 1.024 1.820445 1.592888a21.504 21.504 0 0 0 1.962666 1.479112l0.568889 0.341333c0.568889 0.341333 1.024 0.796444 1.592889 1.137778l0.455111 0.341333c0.682667 0.483556 1.365333 0.824889 2.161778 1.28 0.142222 0.113778 0.369778 0.113778 0.483556 0.227556 0.568889 0.341333 1.137778 0.568889 1.820444 0.910222l0.682667 0.341333c0.796444 0.341333 1.479111 0.682667 2.275555 0.910222a19.456 19.456 0 0 0 2.417778 0.796445c0.227556 0.113778 0.455111 0.113778 0.682667 0.227555a12.003556 12.003556 0 0 0 1.934222 0.455111c0.227556 0 0.341333 0.113778 0.568889 0.113778 0.796444 0.227556 1.706667 0.341333 2.531555 0.455111 0.227556 0 0.341333 0 0.568889 0.113778 0.682667 0.113778 1.365333 0.113778 2.048 0.227556h0.682667c0.910222 0 1.706667 0.113778 2.645333 0.113777 0.910222 0 1.706667 0 2.616889-0.113777h0.682667a12.344889 12.344889 0 0 0 2.645333-0.341334c0.796444-0.113778 1.706667-0.227556 2.503111-0.455111 0.227556 0 0.341333-0.113778 0.568889-0.113778 0.682667-0.113778 1.365333-0.341333 1.934222-0.455111 0.227556-0.113778 0.455111-0.113778 0.682667-0.227555a19.143111 19.143111 0 0 0 2.417778-0.796445c0.796444-0.227556 1.479111-0.568889 2.275555-0.910222l0.682667-0.341333c0.568889-0.227556 1.251556-0.568889 1.848889-0.910222 0.085333-0.113778 0.341333-0.113778 0.426667-0.227556a20.536889 20.536889 0 0 0 2.190222-1.28l0.455111-0.341333c0.568889-0.341333 1.137778-0.682667 1.592889-1.137778l0.568889-0.341333c0.682667-0.455111 1.393778-1.024 1.962666-1.479112 0.568889-0.455111 1.251556-1.024 1.820445-1.592888l0.455111-0.455112 1.365333-1.393777 0.341334-0.341334c0.568889-0.568889 1.137778-1.251556 1.592889-1.820444 0.142222-0.113778 0.227556-0.341333 0.341333-0.455111a8.049778 8.049778 0 0 0 1.137778-1.592889c0.142222-0.227556 0.256-0.341333 0.369777-0.568889l1.365334-2.076444v-0.113778a41.386667 41.386667 0 0 0 1.137778-40.220445c-0.341333-0.682667-0.796444-1.365333-1.137778-2.048v-0.113777l-1.365334-2.076445-0.341333-0.568889c-0.341333-0.568889-0.796444-1.024-1.137778-1.592889-0.142222-0.113778-0.227556-0.341333-0.341333-0.455111-0.568889-0.682667-1.052444-1.251556-1.621333-1.820444l-0.341334-0.341334-1.365333-1.393777-0.455111-0.455111c-0.568889-0.568889-1.137778-1.024-1.820445-1.592889a22.101333 22.101333 0 0 0-1.962666-1.479111l-0.568889-0.341334c-0.568889-0.341333-1.024-0.796444-1.592889-1.137778l-0.455111-0.341333c-0.682667-0.483556-1.365333-0.824889-2.161778-1.28-0.142222-0.113778-0.369778-0.113778-0.483555-0.227555-0.568889-0.341333-1.137778-0.568889-1.820445-0.910223l-0.682667-0.341333c-0.796444-0.341333-1.479111-0.682667-2.275555-0.910222-0.796444-0.341333-1.592889-0.568889-2.417778-0.796445-0.227556-0.113778-0.455111-0.113778-0.682667-0.227555a12.316444 12.316444 0 0 0-1.934222-0.455111c-0.227556 0-0.341333-0.113778-0.568889-0.113778-0.796444-0.227556-1.706667-0.341333-2.503111-0.455111-0.256 0-0.369778 0-0.568889-0.113778-0.711111-0.113778-1.393778-0.113778-2.076444-0.227556h-0.682667c-0.910222 0-1.706667-0.113778-2.645333-0.113777-0.910222 0-1.706667 0-2.616889 0.113777h-0.682667c-0.682667 0-1.365333 0.113778-2.048 0.227556-0.227556 0-0.341333 0-0.568889 0.113778-0.824889 0.113778-1.706667 0.227556-2.531555 0.455111-0.227556 0-0.341333 0.113778-0.568889 0.113778-0.682667 0.113778-1.365333 0.341333-1.934222 0.455111-0.227556 0.113778-0.455111 0.113778-0.682667 0.227555-0.796444 0.227556-1.592889 0.455111-2.417778 0.796445-0.796444 0.227556-1.479111 0.568889-2.275555 0.910222l-0.682667 0.341333a13.710222 13.710222 0 0 0-1.820444 0.910223c-0.113778 0.113778-0.341333 0.113778-0.483556 0.227555a21.845333 21.845333 0 0 0-2.161778 1.28l-0.455111 0.341333a8.049778 8.049778 0 0 0-1.592889 1.137778l-0.568889 0.341334c-0.682667 0.455111-1.393778 1.024-1.962666 1.479111a22.414222 22.414222 0 0 0-1.820445 1.592889l-0.455111 0.455111-1.365333 1.393777-0.341333 0.341334a22.954667 22.954667 0 0 0-1.592889 1.820444l-0.341334 0.455111c-0.483556 0.455111-0.824889 1.024-1.137777 1.592889-0.142222 0.227556-0.256 0.341333-0.369778 0.568889l-1.365334 2.076445v0.113777c-0.455111 0.682667-0.796444 1.365333-1.137777 2.048a41.329778 41.329778 0 0 0 0 38.172445z"  horiz-adv-x="1024" />

    
    <glyph glyph-name="environment" unicode="&#59223;" d="M512 569.002667c-29.895111 0-58.026667-11.605333-79.189333-32.796445a111.616 111.616 0 0 1-32.796445-79.217778c0-29.866667 11.662222-57.998222 32.796445-79.189333A111.616 111.616 0 0 1 512 345.002667c29.895111 0 58.026667 11.690667 79.189333 32.796444a111.189333 111.189333 0 0 1 32.824889 79.189333c0 29.923556-11.605333 58.026667-32.824889 79.217778A111.189333 111.189333 0 0 1 512 569.002667z m342.584889 37.888a362.439111 362.439111 0 0 1-79.900445 115.712 370.801778 370.801778 0 0 1-118.186666 77.795555A375.068444 375.068444 0 0 1 512 829.013333c-50.090667 0-98.702222-9.614222-144.497778-28.501333a372.536889 372.536889 0 0 1-118.215111-77.824 363.576889 363.576889 0 0 1-79.900444-115.683556 355.157333 355.157333 0 0 1-29.383111-141.994666c0-70.599111 16.896-140.913778 50.090666-208.725334 26.709333-54.499556 64-107.576889 110.990222-158.094222 80.327111-86.186667 164.522667-138.894222 188.416-153.002666 6.798222-3.982222 14.506667-6.115556 22.414223-6.087112 7.793778 0 15.473778 1.991111 22.385777 6.087112 23.893333 14.108444 108.088889 66.816 188.387556 153.031111 47.018667 50.375111 84.309333 103.594667 111.018667 158.094222 33.393778 67.697778 50.289778 137.898667 50.289777 208.583111 0 49.208889-9.898667 96.995556-29.411555 141.994667zM512 281.031111a176.014222 176.014222 0 1 0 0 352 176.014222 176.014222 0 0 0 0-352z"  horiz-adv-x="1024" />

    
    <glyph glyph-name="Exclamation" unicode="&#58968;" d="M438.840889 50.289778a73.130667 73.130667 0 1 1 146.261333 0 73.130667 73.130667 0 0 1-146.261333 0z m36.579555 192h73.130667a9.159111 9.159111 0 0 1 9.159111 9.159111V781.738667a9.159111 9.159111 0 0 1-9.159111 9.130666h-73.130667a9.159111 9.159111 0 0 1-9.159111-9.130666V251.448889c0-5.034667 4.124444-9.159111 9.159111-9.159111z"  horiz-adv-x="1024" />

    
    <glyph glyph-name="facebook" unicode="&#59224;" d="M880.014222 783.985778H144.014222c-17.720889 0-32-14.279111-32-31.971556v-736c0-17.720889 14.279111-32 31.971556-32h736c17.720889 0 32 14.279111 32 31.971556V751.985778c0 17.720889-14.279111 32-31.971556 32z m-92.416-233.472h-63.886222c-50.119111 0-59.818667-23.808-59.818667-58.823111v-77.084445h119.608889l-15.616-120.718222H663.893333v-309.902222h-124.700444V293.831111H434.915556v120.803556h104.277333v89.002666c0 103.281778 63.118222 159.573333 155.306667 159.573334 44.202667 0 82.090667-3.271111 93.212444-4.778667v-107.889778h-0.113778z"  horiz-adv-x="1024" />

    
    <glyph glyph-name="FastBackward" unicode="&#58969;" d="M517.603556 622.506667L230.200889 396.714667a16.156444 16.156444 0 0 1 0-25.400889l287.402667-225.820445a16.298667 16.298667 0 0 1 26.396444 12.714667V609.792a16.298667 16.298667 0 0 1-26.396444 12.714667z m320 0l-287.402667-225.792a16.156444 16.156444 0 0 1 0-25.400889l287.402667-225.820445a16.298667 16.298667 0 0 1 26.396444 12.714667V609.792a16.298667 16.298667 0 0 1-26.396444 12.714667zM217.6 647.964444h-51.2c-3.498667 0-6.4-2.702222-6.4-5.973333V126.008889c0-3.299556 2.901333-6.001778 6.4-6.001778h51.2c3.498667 0 6.4 2.702222 6.4 5.973333V641.991111c0 3.299556-2.901333 6.001778-6.4 6.001778z"  horiz-adv-x="1024" />

    
    <glyph glyph-name="FastBackward1" unicode="&#59225;" d="M517.603556 622.506667L230.200889 396.714667a16.156444 16.156444 0 0 1 0-25.400889l287.402667-225.820445a16.298667 16.298667 0 0 1 26.396444 12.714667V609.792a16.298667 16.298667 0 0 1-26.396444 12.714667z m320 0l-287.402667-225.792a16.156444 16.156444 0 0 1 0-25.400889l287.402667-225.820445a16.298667 16.298667 0 0 1 26.396444 12.714667V609.792a16.298667 16.298667 0 0 1-26.396444 12.714667zM217.6 647.964444h-51.2c-3.498667 0-6.4-2.702222-6.4-5.973333V126.008889c0-3.299556 2.901333-6.001778 6.4-6.001778h51.2c3.498667 0 6.4 2.702222 6.4 5.973333V641.991111c0 3.299556-2.901333 6.001778-6.4 6.001778z"  horiz-adv-x="1024" />

    
    <glyph glyph-name="FastForward" unicode="&#58970;" d="M793.799111 396.714667L506.396444 622.478222a16.298667 16.298667 0 0 1-26.396444-12.714666v-451.584c0-13.511111 15.701333-21.105778 26.396444-12.714667l287.402667 225.820444a16.156444 16.156444 0 0 1 0 25.400889z m-320 0L186.396444 622.478222a16.298667 16.298667 0 0 1-26.396444-12.714666v-451.498667c0-13.482667 15.701333-21.105778 26.396444-12.686222l287.402667 225.792a16.099556 16.099556 0 0 1 0 25.315555zM857.6 647.964444h-51.2c-3.498667 0-6.4-2.702222-6.4-5.973333V126.008889c0-3.299556 2.901333-6.001778 6.4-6.001778h51.2c3.498667 0 6.4 2.702222 6.4 5.973333V641.991111c0 3.299556-2.901333 6.001778-6.4 6.001778z"  horiz-adv-x="1024" />

    
    <glyph glyph-name="file" unicode="&#59226;" d="M854.584889 607.288889c6.030222-5.973333 9.415111-14.08 9.415111-22.584889v-616.704c0-17.692444-14.307556-32-32-32H192a31.971556 31.971556 0 0 0-32 32V800c0 17.692444 14.307556 32 32 32h424.675556c8.533333 0 16.725333-3.413333 22.727111-9.386667l215.210666-215.324444z m-64.398222-37.262222l-188.188445 188.16v-188.188445h188.188445z"  horiz-adv-x="1024" />

    
    <glyph glyph-name="Drag" unicode="&#58971;" d="M966.030222 390.542222l-145.834666 115.086222a8.248889 8.248889 0 0 1-13.368889-6.542222v-73.927111h-253.724445v253.724445h74.069334a8.305778 8.305778 0 0 1 6.542222 13.368888l-115.2 145.834667a8.163556 8.163556 0 0 1-12.942222 0l-115.2-145.834667a8.248889 8.248889 0 0 1 6.542222-13.368888h73.927111v-253.724445h-253.724445v74.069333a8.305778 8.305778 0 0 1-13.368888 6.513778l-145.834667-115.2a8.163556 8.163556 0 0 1 0-12.913778l145.720889-115.2a8.248889 8.248889 0 0 1 13.368889 6.513778v73.955556h253.724444v-253.724445h-74.069333a8.305778 8.305778 0 0 1-6.513778-13.368889l115.2-145.720888a8.163556 8.163556 0 0 1 12.913778 0l115.2 145.720888a8.248889 8.248889 0 0 1-6.513778 13.368889h-73.813333v253.724445h253.724444v-74.069334c0-6.855111 7.964444-10.752 13.368889-6.542222l145.692444 115.2a8.334222 8.334222 0 0 1 0.113778 13.056z"  horiz-adv-x="1024" />

    
    <glyph glyph-name="FastForward1" unicode="&#59227;" d="M793.799111 396.714667L506.396444 622.478222a16.298667 16.298667 0 0 1-26.396444-12.714666v-451.584c0-13.511111 15.701333-21.105778 26.396444-12.714667l287.402667 225.820444a16.156444 16.156444 0 0 1 0 25.400889z m-320 0L186.396444 622.478222a16.298667 16.298667 0 0 1-26.396444-12.714666v-451.498667c0-13.482667 15.701333-21.105778 26.396444-12.686222l287.402667 225.792a16.099556 16.099556 0 0 1 0 25.315555zM857.6 647.964444h-51.2c-3.498667 0-6.4-2.702222-6.4-5.973333V126.008889c0-3.299556 2.901333-6.001778 6.4-6.001778h51.2c3.498667 0 6.4 2.702222 6.4 5.973333V641.991111c0 3.299556-2.901333 6.001778-6.4 6.001778z"  horiz-adv-x="1024" />

    
    <glyph glyph-name="Fall" unicode="&#58972;" d="M985.031111 50.261333l-27.448889 227.640889a9.159111 9.159111 0 0 1-15.530666 5.404445l-67.783112-67.896889-310.044444 309.930666a18.346667 18.346667 0 0 1-25.856 0l-116.337778-116.224L105.813333 725.333333a9.187556 9.187556 0 0 1-12.913777 0L41.472 673.678222a9.187556 9.187556 0 0 1 0-12.913778l367.644444-367.872c7.111111-7.196444 18.773333-7.196444 25.827556 0l116.337778 116.224 258.417778-258.275555-67.783112-67.783111a9.159111 9.159111 0 0 1 5.404445-15.530667l227.640889-27.448889a8.988444 8.988444 0 0 1 10.040889 10.183111z"  horiz-adv-x="1024" />

    
    <glyph glyph-name="eye-invisible" unicode="&#59228;" d="M508.017778 271.985778a112.014222 112.014222 0 0 1 111.559111 121.742222l-121.315556-121.287111c3.214222-0.284444 6.456889-0.426667 9.756445-0.426667zM878.734222 730.453333l-42.723555 42.666667a7.992889 7.992889 0 0 1-11.320889 0L715.377778 663.779556C655.075556 694.584889 587.292444 709.973333 512 709.973333c-192.199111 0-335.587556-100.124444-430.193778-300.288a60.302222 60.302222 0 0 1 0-51.512889c37.802667-79.644444 83.342222-143.445333 136.533334-191.431111l-105.784889-105.756444a7.992889 7.992889 0 0 1 0-11.320889l42.695111-42.666667a7.992889 7.992889 0 0 1 11.320889 0L878.734222 719.104a7.992889 7.992889 0 0 1 0 11.320889zM332.032 384a176.042667 176.042667 0 0 0 258.844444 155.306667l-48.611555-48.64a112.071111 112.071111 0 0 1-140.913778-140.913778l-48.64-48.64A175.075556 175.075556 0 0 0 332.032 384zM942.193778 409.799111c-35.214222 74.126222-77.084444 134.599111-125.696 181.361778l-144.128-144.156445a176.099556 176.099556 0 0 0-227.384889-227.384888l-122.254222-122.254223c56.718222-26.225778 119.808-39.367111 189.269333-39.367111 192.199111 0 335.587556 100.124444 430.193778 300.316445a60.302222 60.302222 0 0 1 0 51.484444z"  horiz-adv-x="1024" />

    
    <glyph glyph-name="Export" unicode="&#58973;" d="M942.051556 103.68h-61.496889c-4.807111 0-8.817778-3.982222-8.817778-8.817778v-70.599111h-719.644445V744.021333h719.786667v-70.627555c0-4.807111 3.982222-8.817778 8.789333-8.817778h61.496889a8.817778 8.817778 0 0 1 8.789334 8.817778V787.911111c0 19.427556-15.644444 35.072-35.072 35.072H108.202667c-19.427556 0-35.072-15.644444-35.072-35.072v-807.537778c0-19.427556 15.644444-35.100444 35.072-35.100444h807.537777c19.427556 0 35.100444 15.644444 35.100445 35.100444v114.517334a8.817778 8.817778 0 0 1-8.817778 8.789333z m21.248 287.658667l-162.161778 128a9.159111 9.159111 0 0 1-14.876445-7.196445v-86.869333H427.406222a9.159111 9.159111 0 0 1-9.130666-9.130667v-64c0-5.034667 4.096-9.159111 9.130666-9.159111h358.855111v-86.840889c0-7.68 8.931556-12.003556 14.876445-7.196444l162.133333 128a9.159111 9.159111 0 0 1 0 14.392889z"  horiz-adv-x="1024" />

    
    <glyph glyph-name="credit-card" unicode="&#59229;" d="M928 736H96c-17.692444 0-32-14.307556-32-32v-160h896V704c0 17.692444-14.307556 32-32 32zM64 64c0-17.692444 14.307556-32 32-32h832c17.692444 0 32 14.307556 32 32V455.992889H64V64z m578.986667 184.007111c0 4.380444 3.612444 7.992889 8.021333 7.992889h164.977778c4.408889 0 8.021333-3.612444 8.021333-7.992889v-72.021333a8.021333 8.021333 0 0 0-8.021333-7.964445h-164.977778a8.021333 8.021333 0 0 0-8.021333 7.964445V248.035556z"  horiz-adv-x="1024" />

    
    <glyph glyph-name="Exception" unicode="&#58974;" d="M713.159111 612.778667V667.648a9.159111 9.159111 0 0 1-9.130667 9.130667H265.159111a9.159111 9.159111 0 0 1-9.130667-9.130667v-54.869333c0-5.034667 4.124444-9.130667 9.130667-9.130667h438.869333a9.159111 9.159111 0 0 1 9.130667 9.130667z m-448-100.579556a9.159111 9.159111 0 0 1-9.130667-9.130667v-54.869333c0-5.006222 4.124444-9.130667 9.130667-9.130667h210.289778a9.159111 9.159111 0 0 1 9.159111 9.130667v54.869333a9.159111 9.159111 0 0 1-9.159111 9.130667H265.159111z m429.738667-132.551111a246.840889 246.840889 0 0 1-246.897778-246.869333 246.840889 246.840889 0 0 1 246.897778-246.840889 246.840889 246.840889 0 0 1 246.840889 246.840889 246.840889 246.840889 0 0 1-246.840889 246.869333z m122.851555-369.720889a172.657778 172.657778 0 0 0-122.88-50.858667 172.657778 172.657778 0 0 0-122.851555 50.858667 172.657778 172.657778 0 0 0-50.858667 122.851556 172.657778 172.657778 0 0 0 50.858667 122.88 172.629333 172.629333 0 0 0 122.88 50.830222c46.364444 0 90.055111-18.062222 122.851555-50.858667a172.657778 172.657778 0 0 0 50.858667-122.851555 172.657778 172.657778 0 0 0-50.858667-122.88z m-159.431111 31.431111a36.579556 36.579556 0 1 1 73.159111 0 36.579556 36.579556 0 0 1-73.159111 0z m13.710222 73.130667h45.710223a9.159111 9.159111 0 0 1 9.159111 9.159111v128a9.159111 9.159111 0 0 1-9.159111 9.130667h-45.710223a9.159111 9.159111 0 0 1-9.159111-9.130667v-128c0-5.034667 4.124444-9.159111 9.159111-9.159111z m-242.289777-118.840889H164.608V800.199111h640v-393.130667c0-5.034667 4.096-9.159111 9.130667-9.159111h64a9.159111 9.159111 0 0 1 9.159111 9.159111V845.909333c0 20.252444-16.355556 36.579556-36.579556 36.579556H118.897778c-20.252444 0-36.579556-16.327111-36.579556-36.579556v-896c0-20.195556 16.327111-36.551111 36.579556-36.551111h310.840889a9.159111 9.159111 0 0 1 9.159111 9.130667v64a9.159111 9.159111 0 0 1-9.159111 9.159111z"  horiz-adv-x="1024" />

    
    <glyph glyph-name="file-add" unicode="&#59230;" d="M480 316.017778h-108.003556a7.992889 7.992889 0 0 1-7.992888-8.021334v-47.985777a7.964444 7.964444 0 0 1 7.992888-8.021334h108.003556v-108.003555a7.992889 7.992889 0 0 1 7.992889-7.964445h48.014222a7.992889 7.992889 0 0 1 7.992889 7.964445V252.017778h108.003556a7.964444 7.964444 0 0 1 7.992888 8.021333v47.985778a7.992889 7.992889 0 0 1-7.992888 7.992889h-108.003556v108.003555a7.992889 7.992889 0 0 1-7.992889 8.021334h-48.014222a7.992889 7.992889 0 0 1-7.992889-8.021334v-108.003555z m374.613333 291.271111c5.973333-5.973333 9.386667-14.08 9.386667-22.584889v-616.704c0-17.692444-14.307556-32-32-32H192a31.971556 31.971556 0 0 0-32 32V800c0 17.692444 14.307556 32 32 32h424.675556c8.533333 0 16.725333-3.413333 22.727111-9.386667l215.210666-215.324444z m-64.426666-37.262222l-188.188445 188.16v-188.188445h188.188445z"  horiz-adv-x="1024" />

    
    <glyph glyph-name="EyeInvisible" unicode="&#58975;" d="M1003.662222 413.582222c-40.163556 84.650667-87.978667 153.685333-143.416889 207.075556l-58.168889-58.140445c47.416889-45.312 88.746667-104.590222 124.444445-178.403555C831.431111 187.306667 696.462222 93.809778 512 93.809778c-55.352889 0-106.382222 8.533333-153.002667 25.6l-63.004444-63.004445c64.768-29.923556 136.760889-44.885333 216.007111-44.885333 219.676444 0 383.544889 114.403556 491.662222 343.210667a68.892444 68.892444 0 0 1 0 58.88zM931.015111 780.032l-48.725333 48.782222a9.159111 9.159111 0 0 1-12.942222 0L744.391111 703.886222C675.441778 739.072 597.987556 756.679111 512 756.679111 292.352 756.679111 128.455111 642.275556 20.337778 413.468444a68.920889 68.920889 0 0 1 0-58.851555c43.207111-90.965333 95.203556-163.896889 156.017778-218.737778l-120.945778-120.888889a9.130667 9.130667 0 0 1 0-12.942222l48.782222-48.810667a9.159111 9.159111 0 0 1 12.942222 0L930.986667 767.089778a9.159111 9.159111 0 0 1 0 12.942222zM97.479111 384.085333C192.682667 580.949333 327.68 674.417778 512 674.417778c62.350222 0 119.011556-10.695111 170.439111-32.426667l-80.355555-80.355555a201.159111 201.159111 0 0 1-272.156445-272.156445l-95.317333-95.317333c-52.764444 46.563556-98.247111 109.653333-137.102222 189.980444z m281.941333 0a128.113778 128.113778 0 0 0 167.111112 121.941334l-161.024-160.995556a128 128 0 0 0-6.087112 39.082667zM507.448889 255.914667c-3.953778 0-7.850667 0.199111-11.719111 0.568889l-60.359111-60.387556a201.244444 201.244444 0 0 1 259.925333 259.896889L634.88 395.662222a127.601778 127.601778 0 0 0-9.187556-60.700444 127.914667 127.914667 0 0 0-118.272-79.018667z"  horiz-adv-x="1024" />

    
    <glyph glyph-name="file-exclamation" unicode="&#59231;" d="M854.584889 607.288889c6.030222-5.973333 9.415111-14.08 9.415111-22.584889v-616.704c0-17.692444-14.307556-32-32-32H192a31.971556 31.971556 0 0 0-32 32V800c0 17.692444 14.307556 32 32 32h424.675556c8.533333 0 16.725333-3.413333 22.727111-9.386667l215.210666-215.324444z m-64.398222-37.262222l-188.188445 188.16v-188.188445h188.188445zM512 111.985778a40.021333 40.021333 0 1 1 0 80.014222 40.021333 40.021333 0 0 1 0-80.042667z m32 151.978666V448a7.992889 7.992889 0 0 1-7.992889 7.992889h-48.014222a7.992889 7.992889 0 0 1-7.992889-7.992889v-184.007111a7.992889 7.992889 0 0 1 7.992889-7.992889h48.014222a7.992889 7.992889 0 0 1 7.992889 7.992889z"  horiz-adv-x="1024" />

    
    <glyph glyph-name="Eye" unicode="&#58976;" d="M1003.662222 413.411556C895.317333 641.649778 731.591111 756.508444 512 756.508444 292.352 756.508444 128.682667 641.649778 20.337778 413.297778a68.920889 68.920889 0 0 1 0-58.88C128.711111 126.236444 292.465778 11.377778 512 11.377778c219.676444 0 383.317333 114.830222 491.662222 343.182222 8.817778 18.488889 8.817778 39.992889 0 58.88zM512 93.639111c-184.32 0-319.317333 93.496889-414.520889 290.304C192.682667 580.721778 327.68 674.218667 512 674.218667s319.317333-93.496889 414.520889-290.275556C831.431111 187.107556 696.462222 93.639111 512 93.639111z m-4.551111 491.434667a201.159111 201.159111 0 1 1 0-402.289778 201.159111 201.159111 0 0 1 0 402.289778z m0-329.130667a127.943111 127.943111 0 0 0-128 128c0 70.741333 57.230222 128 128 128 70.741333 0 128-57.258667 128-128 0-70.769778-57.258667-128-128-128z"  horiz-adv-x="1024" />

    
    <glyph glyph-name="file-excel" unicode="&#59232;" d="M854.584889 607.288889c6.030222-5.973333 9.415111-14.08 9.415111-22.584889v-616.704c0-17.692444-14.307556-32-32-32H192a31.971556 31.971556 0 0 0-32 32V800c0 17.692444 14.307556 32 32 32h424.675556c8.533333 0 16.725333-3.413333 22.727111-9.386667l215.210666-215.324444z m-64.398222-37.262222l-188.188445 188.16v-188.188445h188.188445z m-214.840889-151.893334l-61.212445-102.257777-61.838222 102.314666a11.975111 11.975111 0 0 1-10.24 5.802667h-38.456889a12.032 12.032 0 0 1-10.154666-18.403556l82.346666-130.417777-83.456-132.778667a11.946667 11.946667 0 0 1 10.154667-18.403556h34.446222a12.032 12.032 0 0 1 10.24 5.688889l62.691556 101.489778 62.293333-101.461333a12.003556 12.003556 0 0 1 10.24-5.717334h37.461333a12.003556 12.003556 0 0 1 10.097778 18.488889l-83.825778 130.56 85.333334 132.465778a12.032 12.032 0 0 1-10.126223 18.488889h-35.697777a12.003556 12.003556 0 0 1-10.296889-5.831111z"  horiz-adv-x="1024" />

    
    <glyph glyph-name="File" unicode="&#58977;" d="M903.566222 639.317333L657.635556 885.248A36.494222 36.494222 0 0 1 631.808 896H146.318222c-20.224 0-36.579556-16.355556-36.579555-36.579556v-950.840888c0-20.224 16.355556-36.579556 36.579555-36.579556h731.420445c20.252444 0 36.579556 16.355556 36.579555 36.579556V613.376c0 9.699556-3.896889 19.057778-10.752 25.941333z m-73.585778-42.752h-215.096888V811.662222l215.096888-215.096889z m2.048-642.275555h-640V813.710222h345.144889v-246.840889a48.014222 48.014222 0 0 1 48.014223-48.014222h246.840888v-564.565333z"  horiz-adv-x="1024" />

    
    <glyph glyph-name="file-image" unicode="&#59233;" d="M854.584889 607.288889L639.431111 822.613333c-6.001778 5.973333-14.222222 9.386667-22.698667 9.386667H192c-17.692444 0-32-14.307556-32-32v-832c0-17.692444 14.307556-32 32-32h640c17.692444 0 32 14.307556 32 32v616.675556c0 8.533333-3.413333 16.64-9.386667 22.613333z m-454.599111-113.294222a39.992889 39.992889 0 1 0 0.028444-79.985778 39.992889 39.992889 0 0 0 0 79.985778zM696.035556 199.992889H327.964444a7.964444 7.964444 0 0 0-6.286222 12.913778l99.783111 127.203555a7.964444 7.964444 0 0 0 12.600889 0l41.102222-52.423111 77.795556 99.214222a7.992889 7.992889 0 0 0 12.600889 0l136.533333-173.994666a7.879111 7.879111 0 0 0-6.115555-12.913778zM601.998222 570.026667V758.186667l188.188445-188.188445h-188.188445z"  horiz-adv-x="1024" />

    
    <glyph glyph-name="FieldTime" unicode="&#58978;" d="M1006.791111 498.204444H714.24a9.159111 9.159111 0 0 1-9.159111-9.130666v-54.869334c0-5.006222 4.124444-9.130667 9.159111-9.130666h292.551111a9.159111 9.159111 0 0 1 9.159111 9.130666v54.869334a9.159111 9.159111 0 0 1-9.159111 9.130666z m-153.144889-155.420444H714.24a9.159111 9.159111 0 0 1-9.159111-9.130667V278.755556c0-5.034667 4.124444-9.130667 9.159111-9.130667h139.406222a9.159111 9.159111 0 0 1 9.159111 9.130667V333.653333a9.159111 9.159111 0 0 1-9.159111 9.130667z m-381.354666 257.706667h-49.493334c-7.082667 0-12.8-5.688889-12.8-12.8v-283.420445c0-4.124444 1.934222-7.879111 5.262222-10.268444l170.154667-124.131556c5.717333-4.124444 13.738667-2.958222 17.834667 2.730667l29.383111 40.106667v0.142222a12.8 12.8 0 0 1-2.844445 17.834666l-144.810666 104.675556v252.330667a12.686222 12.686222 0 0 1-12.686222 12.8zM846.620444 199.196444H780.515556a18.773333 18.773333 0 0 1-15.872-8.817777c-14.535111-23.04-31.573333-44.373333-50.858667-63.658667a362.410667 362.410667 0 0 0-257.479111-106.609778 362.410667 362.410667 0 0 0-257.479111 106.638222 362.467556 362.467556 0 0 0-106.666667 257.479112A362.467556 362.467556 0 0 0 198.826667 641.706667a362.467556 362.467556 0 0 0 257.507555 106.609777 362.467556 362.467556 0 0 0 257.479111-106.638222 366.933333 366.933333 0 0 0 50.858667-63.630222 18.773333 18.773333 0 0 1 15.872-8.817778h66.076444c7.879111 0 12.913778 8.248889 9.386667 15.217778A446.947556 446.947556 0 0 1 461.653333 830.947556C214.755556 834.048 9.614222 631.864889 9.159111 385.137778c-0.455111-247.182222 199.879111-447.772444 447.089778-447.772445 170.837333 0 324.437333 96.682667 399.758222 246.613334a10.467556 10.467556 0 0 1-9.386667 15.217777z"  horiz-adv-x="1024" />

    
    <glyph glyph-name="file-ppt" unicode="&#59234;" d="M854.584889 607.288889c6.030222-5.973333 9.415111-14.08 9.415111-22.584889v-616.704c0-17.692444-14.307556-32-32-32H192a31.971556 31.971556 0 0 0-32 32V800c0 17.692444 14.307556 32 32 32h424.675556c8.533333 0 16.725333-3.413333 22.727111-9.386667l215.210666-215.324444z m-64.398222-37.262222l-188.188445 188.16v-188.188445h188.188445zM468.565333 135.964444V227.555556h59.249778c60.586667 0 100.209778 39.623111 100.209778 98.104888 0 58.225778-39.566222 98.332444-99.982222 98.332445h-104.021334a12.003556 12.003556 0 0 1-12.003555-12.003556v-275.996444a12.003556 12.003556 0 0 1 12.003555-12.003556h32.540445a12.003556 12.003556 0 0 1 12.003555 12.003556z m0 139.349334h34.901334c47.786667 0 67.185778 12.913778 67.185777 50.318222 0 32.056889-18.119111 50.119111-49.863111 50.119111h-52.224v-100.437333z"  horiz-adv-x="1024" />

    
    <glyph glyph-name="FileDone" unicode="&#58979;" d="M713.159111 612.778667V667.648a9.159111 9.159111 0 0 1-9.130667 9.130667H265.159111a9.159111 9.159111 0 0 1-9.130667-9.130667v-54.869333c0-5.034667 4.124444-9.130667 9.130667-9.130667h438.869333a9.159111 9.159111 0 0 1 9.130667 9.130667z m-448-100.579556a9.159111 9.159111 0 0 1-9.130667-9.130667v-54.869333c0-5.006222 4.124444-9.130667 9.130667-9.130667h210.289778a9.159111 9.159111 0 0 1 9.159111 9.130667v54.869333a9.159111 9.159111 0 0 1-9.159111 9.130667H265.159111z m429.738667-132.551111a246.840889 246.840889 0 0 1-246.897778-246.869333 246.840889 246.840889 0 0 1 246.897778-246.840889 246.840889 246.840889 0 0 1 246.840889 246.840889 246.840889 246.840889 0 0 1-246.840889 246.869333z m122.851555-369.720889a172.657778 172.657778 0 0 0-122.88-50.858667 172.657778 172.657778 0 0 0-122.851555 50.858667 172.657778 172.657778 0 0 0-50.858667 122.851556 172.657778 172.657778 0 0 0 50.858667 122.88 172.629333 172.629333 0 0 0 122.88 50.830222c46.364444 0 90.055111-18.062222 122.851555-50.858667a172.657778 172.657778 0 0 0 50.858667-122.851555 172.657778 172.657778 0 0 0-50.858667-122.88z m-21.162666 209.720889h-50.631111c-2.958222 0-5.688889-1.393778-7.395556-3.783111l-72.590222-100.352-26.396445 36.465778a9.102222 9.102222 0 0 1-7.424 3.783111h-50.403555a9.187556 9.187556 0 0 1-7.424-14.506667l84.337778-116.707555a9.102222 9.102222 0 0 1 14.734222 0l130.531555 180.565333a9.102222 9.102222 0 0 1-7.338666 14.506667z m-366.848-224H164.608V800.199111h640v-393.130667c0-5.034667 4.096-9.159111 9.130667-9.159111h64a9.159111 9.159111 0 0 1 9.159111 9.159111V845.909333c0 20.252444-16.355556 36.579556-36.579556 36.579556H118.897778c-20.252444 0-36.579556-16.327111-36.579556-36.579556v-896c0-20.195556 16.327111-36.551111 36.579556-36.551111h310.840889a9.159111 9.159111 0 0 1 9.159111 9.130667v64a9.159111 9.159111 0 0 1-9.159111 9.159111z"  horiz-adv-x="1024" />

    
    <glyph glyph-name="file-markdown" unicode="&#59235;" d="M854.584889 607.288889c6.030222-5.973333 9.415111-14.08 9.415111-22.584889v-616.704c0-17.692444-14.307556-32-32-32H192a31.971556 31.971556 0 0 0-32 32V800c0 17.692444 14.307556 32 32 32h424.675556c8.533333 0 16.725333-3.413333 22.727111-9.386667l215.210666-215.324444z m-64.398222-37.262222l-188.188445 188.16v-188.188445h188.188445z m-364.060445-274.944l59.107556-132.977778a16.014222 16.014222 0 0 1 14.620444-9.500445h24.064a16.014222 16.014222 0 0 1 14.620445 9.500445l59.107555 133.347555v-157.44a16.014222 16.014222 0 0 1 16.014222-16.014222h27.335112a15.985778 15.985778 0 0 1 16.014222 16.014222v271.985778a16.014222 16.014222 0 0 1-16.014222 16.014222h-34.730667a16.014222 16.014222 0 0 1-14.677333-9.642666l-79.473778-182.584889-79.502222 182.613333a15.985778 15.985778 0 0 1-14.648889 9.614222h-34.986667a16.014222 16.014222 0 0 1-15.985778-16.014222v-271.985778a16.014222 16.014222 0 0 1 16.014222-16.014222h27.136a16.014222 16.014222 0 0 1 15.985778 16.014222v157.070223z"  horiz-adv-x="1024" />

    
    <glyph glyph-name="FileAdd" unicode="&#58980;" d="M903.537778 639.317333L657.635556 885.248A36.494222 36.494222 0 0 1 631.751111 896H146.289778c-20.224 0-36.579556-16.355556-36.579556-36.579556v-950.840888c0-20.224 16.355556-36.579556 36.579556-36.579556h731.420444c20.252444 0 36.579556 16.355556 36.579556 36.579556V613.376c0 9.699556-3.896889 19.057778-10.752 25.941333z m-73.585778-42.752h-215.096889V811.662222l215.096889-215.096889z m2.048-642.275555H192V813.710222h345.144889v-246.840889a48.014222 48.014222 0 0 1 48.014222-48.014222h246.840889v-564.565333z m-283.420444 475.420444a9.159111 9.159111 0 0 1-9.159112 9.159111h-54.840888a9.159111 9.159111 0 0 1-9.159112-9.159111v-123.448889h-123.420444a9.159111 9.159111 0 0 1-9.130667-9.102222v-54.897778c0-5.006222 4.096-9.102222 9.130667-9.102222h123.448889v-123.448889c0-5.034667 4.096-9.130667 9.102222-9.130666h54.897778a9.159111 9.159111 0 0 1 9.102222 9.130666v123.448889h123.448889a9.159111 9.159111 0 0 1 9.159111 9.102222v54.897778a9.159111 9.159111 0 0 1-9.159111 9.102222h-123.448889v123.448889z"  horiz-adv-x="1024" />

    
    <glyph glyph-name="file-text" unicode="&#59236;" d="M854.584889 607.288889c6.030222-5.973333 9.415111-14.08 9.415111-22.584889v-616.704c0-17.692444-14.307556-32-32-32H192a31.971556 31.971556 0 0 0-32 32V800c0 17.692444 14.307556 32 32 32h424.675556c8.533333 0 16.725333-3.413333 22.727111-9.386667l215.210666-215.324444z m-64.398222-37.262222l-188.188445 188.16v-188.188445h188.188445z m-470.186667-156.017778a7.992889 7.992889 0 0 1-7.992889-8.021333v-47.985778a7.992889 7.992889 0 0 1 7.992889-7.992889h384a7.992889 7.992889 0 0 1 7.992889 7.964444v48.014223a7.992889 7.992889 0 0 1-7.992889 8.021333h-384z m0-136.021333a8.021333 8.021333 0 0 1-7.992889-7.964445v-48.014222a8.021333 8.021333 0 0 1 7.992889-8.021333h184.007111a7.992889 7.992889 0 0 1 7.992889 8.021333v47.985778a7.992889 7.992889 0 0 1-7.992889 7.992889H320z"  horiz-adv-x="1024" />

    
    <glyph glyph-name="FileImage-1" unicode="&#58981;" d="M558.961778 387.299556l-88.888889-113.351112-46.990222 59.875556a9.159111 9.159111 0 0 1-14.392889 0l-114.062222-145.351111a9.102222 9.102222 0 0 1 7.196444-14.762667h420.465778a9.102222 9.102222 0 0 1 7.196444 14.734222l-155.989333 198.855112a9.244444 9.244444 0 0 1-14.506667 0z m-220.672 76.714666a45.710222 45.710222 0 1 1 91.420444 0 45.710222 45.710222 0 0 1-91.420444 0z m565.248 175.303111L657.635556 885.248A36.494222 36.494222 0 0 1 631.751111 896H146.289778c-20.224 0-36.579556-16.355556-36.579556-36.579556v-950.840888c0-20.224 16.355556-36.579556 36.579556-36.579556h731.420444c20.252444 0 36.579556 16.355556 36.579556 36.579556V613.376c0 9.699556-3.896889 19.057778-10.752 25.941333z m-73.585778-42.752h-215.096889V811.662222l215.096889-215.096889z m2.048-642.275555H192V813.710222h345.144889v-246.840889a48.014222 48.014222 0 0 1 48.014222-48.014222h246.840889v-564.565333z"  horiz-adv-x="1024" />

    
    <glyph glyph-name="file-unknown" unicode="&#59237;" d="M854.584889 607.288889c6.030222-5.973333 9.415111-14.08 9.415111-22.584889v-616.704c0-17.692444-14.307556-32-32-32H192a31.971556 31.971556 0 0 0-32 32V800c0 17.692444 14.307556 32 32 32h424.675556c8.533333 0 16.725333-3.413333 22.727111-9.386667l215.210666-215.324444z m-64.398222-37.262222l-188.188445 188.16v-188.188445h188.188445zM402.005333 347.022222c0-5.404444 4.408889-9.528889 9.784889-9.528889h32.426667c5.404444 0 9.784889 4.209778 9.784889 9.386667 0 28.216889 25.799111 51.626667 57.998222 51.626667 32.199111 0 58.026667-23.409778 58.026667-51.484445 0-25.315556-21.048889-47.217778-49.322667-50.915555-19.313778-2.816-34.503111-20.309333-34.702222-40.106667v-32c0-5.489778 4.494222-10.012444 10.012444-10.012444h32a10.040889 10.040889 0 0 1 9.984 10.012444v12.202667c0 5.973333 3.982222 11.491556 9.699556 13.312 44.600889 14.392889 75.008 53.987556 74.296889 98.872889-0.796444 55.523556-49.208889 100.807111-108.487111 101.603555-61.411556 0.711111-111.502222-45.596444-111.502223-102.968889zM512 119.978667a32 32 0 1 1 0 64 32 32 0 0 1 0-64z"  horiz-adv-x="1024" />

    
    <glyph glyph-name="FileExclamation" unicode="&#58982;" d="M903.509333 639.317333L657.578667 885.248A36.494222 36.494222 0 0 1 631.751111 896H146.261333C126.008889 896 109.681778 879.644444 109.681778 859.420444v-950.840888c0-20.224 16.355556-36.579556 36.579555-36.579556h731.420445c20.224 0 36.579556 16.355556 36.579555 36.579556V613.376c0 9.699556-3.896889 19.057778-10.752 25.941333z m-73.585777-42.752h-215.096889V811.662222l215.096889-215.096889z m2.048-642.275555H192V813.710222h345.144889v-246.840889a48.014222 48.014222 0 0 1 48.014222-48.014222h246.840889v-564.565333z m-365.710223 164.579555a45.710222 45.710222 0 1 1 91.420445 0 45.710222 45.710222 0 0 1-91.420445 0z m18.289778 118.840889h54.840889a9.159111 9.159111 0 0 1 9.159111 9.159111V457.102222a9.159111 9.159111 0 0 1-9.159111 9.159111h-54.840889a9.159111 9.159111 0 0 1-9.159111-9.159111v-210.261333c0-5.034667 4.124444-9.159111 9.159111-9.159111z"  horiz-adv-x="1024" />

    
    <glyph glyph-name="filter" unicode="&#59238;" d="M349.013333 58.026667c0-17.720889 14.193778-32.028444 31.772445-32.028445h262.4a31.857778 31.857778 0 0 1 31.800889 32v195.982222H349.013333v-195.982222zM880.071111 741.973333H143.928889c-24.490667 0-39.822222-26.709333-27.505778-48.014222l221.297778-375.978667h348.814222l221.297778 375.978667c12.088889 21.333333-3.214222 48.014222-27.704889 48.014222z"  horiz-adv-x="1024" />

    
    <glyph glyph-name="FileImage" unicode="&#58983;" d="M557.169778 408.576h-34.872889a9.585778 9.585778 0 0 1-9.585778-9.614222v-252.672c0-5.262222 4.209778-9.614222 9.585778-9.614222h34.872889a9.585778 9.585778 0 0 1 9.585778 9.614222v252.672a9.728 9.728 0 0 1-9.585778 9.614222z m-84.821334-125.155556h-100.693333a9.585778 9.585778 0 0 1-9.585778-9.585777v-27.192889c0-5.262222 4.238222-9.614222 9.614223-9.614222h54.385777v-0.796445c-0.682667-34.161778-26.282667-56.917333-64.568889-56.917333-44.8 0-72.675556 35.100444-72.675555 93.013333 0 57.258667 27.306667 92.131556 71.196444 92.131556 32.113778 0 54.272-15.445333 63.317334-43.776l1.024-3.185778h56.234666l-0.796444 5.233778c-9.045333 56.803556-56.120889 93.269333-119.779556 93.269333-78.620444 0-129.137778-56.462222-129.137777-143.872C230.883556 183.552 280.803556 128 360.675556 128c73.614222 0 121.144889 46.08 121.144888 117.589333v28.359111a9.472 9.472 0 0 1-9.500444 9.472zM903.566222 639.317333L657.635556 885.248A36.494222 36.494222 0 0 1 631.808 896H146.318222c-20.224 0-36.579556-16.355556-36.579555-36.579556v-950.840888c0-20.224 16.355556-36.579556 36.579555-36.579556h731.420445c20.252444 0 36.579556 16.355556 36.579555 36.579556V613.376c0 9.699556-3.868444 19.057778-10.752 25.941333zM614.883556 811.662222l215.096888-215.096889h-215.096888V811.662222z m217.144888-857.372444h-640V813.710222h345.144889v-246.840889a47.985778 47.985778 0 0 1 48.014223-48.014222h246.840888v-564.565333zM621.966222 137.500444h36.920889a9.585778 9.585778 0 0 1 9.585778 9.585778v96.910222h100.352a9.585778 9.585778 0 0 1 9.614222 9.614223v29.155555a9.585778 9.585778 0 0 1-9.614222 9.585778h-100.323556v67.328h110.620445a9.585778 9.585778 0 0 1 9.585778 9.585778V399.928889a9.585778 9.585778 0 0 1-9.585778 9.585778h-157.155556a9.585778 9.585778 0 0 1-9.585778-9.585778v-252.700445c0-5.461333 4.323556-9.699556 9.585778-9.699555z"  horiz-adv-x="1024" />

    
    <glyph glyph-name="folder" unicode="&#59239;" d="M880.014222 597.617778H520.988444l-117.276444 112.184889a8.163556 8.163556 0 0 1-5.518222 2.190222H143.985778c-17.692444 0-32-14.279111-32-32v-591.985778c0-17.720889 14.307556-32 32.028444-32h736c17.692444 0 32 14.279111 32 32v477.582222c0 17.720889-14.307556 32-32.028444 32z"  horiz-adv-x="1024" />

    
    <glyph glyph-name="FileExcel" unicode="&#58984;" d="M903.509333 639.317333L657.578667 885.248A36.494222 36.494222 0 0 1 631.751111 896H146.261333C126.008889 896 109.681778 879.644444 109.681778 859.420444v-950.840888c0-20.224 16.355556-36.579556 36.579555-36.579556h731.420445c20.224 0 36.579556 16.355556 36.579555 36.579556V613.376c0 9.699556-3.896889 19.057778-10.752 25.941333z m-73.585777-42.752h-215.096889V811.662222l215.096889-215.096889z m2.048-642.275555H192V813.710222h345.144889v-246.840889a48.014222 48.014222 0 0 1 48.014222-48.014222h246.840889v-564.565333z m-317.610667 351.857778L443.733333 423.224889a13.795556 13.795556 0 0 1-11.747555 6.627555h-43.889778a12.743111 12.743111 0 0 1-7.310222-2.161777 13.653333 13.653333 0 0 1-4.266667-18.972445l94.094222-149.048889-95.317333-151.751111a13.738667 13.738667 0 0 1 11.662222-21.048889h39.424a13.767111 13.767111 0 0 1 11.662222 6.542223l71.651556 115.996444 71.196444-115.882667a13.653333 13.653333 0 0 1 11.662223-6.542222h42.837333a13.681778 13.681778 0 0 1 11.548444 21.134222l-96 149.048889 97.479112 151.438222a13.738667 13.738667 0 0 1-11.52 21.134223h-40.817778a13.795556 13.795556 0 0 1-11.776-6.627556l-69.944889-116.906667z"  horiz-adv-x="1024" />

    
    <glyph glyph-name="fire" unicode="&#59240;" d="M834.104889 426.808889a347.505778 347.505778 0 0 1-82.915556 115.2l-29.098666 26.680889a8.106667 8.106667 0 0 1-12.999111-3.299556l-12.999112-37.262222c-8.106667-23.438222-22.983111-47.331556-44.088888-70.826667a6.257778 6.257778 0 0 0-4.096-1.991111 5.518222 5.518222 0 0 0-4.295112 1.507556 5.888 5.888 0 0 0-1.991111 4.778666c3.697778 60.216889-14.307556 128.113778-53.731555 202.012445-32.597333 61.383111-77.880889 109.283556-134.485334 142.705778L412.103111 830.577778a8.021333 8.021333 0 0 1-12.003555-7.310222l2.190222-47.985778c1.507556-32.796444-2.275556-61.809778-11.292445-85.902222-11.008-29.496889-26.794667-56.888889-46.990222-81.493334a295.594667 295.594667 0 0 0-47.502222-46.108444 352.625778 352.625778 0 0 1-100.295111-121.514667 347.761778 347.761778 0 0 1-36.209778-154.282667c0-47.217778 9.301333-92.899556 27.704889-136.021333a351.402667 351.402667 0 0 1 187.392-185.6c43.406222-18.204444 89.400889-27.392 136.903111-27.392s93.496889 9.216 136.903111 27.306667a348.586667 348.586667 0 0 1 111.900445 74.695111 346.197333 346.197333 0 0 1 103.196444 246.897778 344.177778 344.177778 0 0 1-29.895111 140.913777z"  horiz-adv-x="1024" />

    
    <glyph glyph-name="FileSearch" unicode="&#58985;" d="M713.130667 612.778667V667.648a9.159111 9.159111 0 0 1-9.130667 9.130667H265.102222A9.159111 9.159111 0 0 1 256 667.648v-54.869333c0-5.034667 4.096-9.130667 9.130667-9.130667H704a9.159111 9.159111 0 0 1 9.130667 9.130667z m-448-100.579556a9.159111 9.159111 0 0 1-9.130667-9.130667v-54.869333c0-5.006222 4.096-9.130667 9.130667-9.130667h210.289777a9.159111 9.159111 0 0 1 9.159112 9.130667v54.869333a9.159111 9.159111 0 0 1-9.159112 9.130667H265.130667z m164.579555-516.551111H164.579556V800.199111h640v-393.130667c0-5.034667 4.096-9.159111 9.130666-9.159111h64a9.159111 9.159111 0 0 1 9.130667 9.159111V845.909333c0 20.252444-16.327111 36.579556-36.551111 36.579556H118.840889c-20.195556 0-36.551111-16.327111-36.551111-36.579556v-896c0-20.195556 16.327111-36.551111 36.551111-36.551111h310.869333a9.159111 9.159111 0 0 1 9.130667 9.130667v64a9.159111 9.159111 0 0 1-9.130667 9.159111z m509.383111-58.88l-106.666666 106.666667a201.159111 201.159111 0 1 1-49.834667-46.648889l108.259556-108.231111a9.187556 9.187556 0 0 1 12.8 0l35.441777 35.413333a9.102222 9.102222 0 0 1 0 12.8z m-267.093333 100.010667a127.943111 127.943111 0 0 0-128 128c0 70.741333 57.258667 128 128 128s128-57.258667 128-128-57.258667-128-128-128z"  horiz-adv-x="1024" />

    
    <glyph glyph-name="file-zip" unicode="&#59241;" d="M854.584889 607.288889c6.030222-5.973333 9.415111-14.08 9.415111-22.584889v-616.704c0-17.692444-14.307556-32-32-32H192a31.971556 31.971556 0 0 0-32 32V800c0 17.692444 14.307556 32 32 32h424.675556c8.533333 0 16.725333-3.413333 22.727111-9.386667l215.210666-215.324444z m-64.398222-37.262222l-188.188445 188.16v-188.188445h188.188445zM296.021333 759.978667v-64h64v64h-64z m64-64v-64h64v64h-64z m-64-64v-64h64v64h-64z m64-64v-64h64v64h-64z m-64-64v-64h64v64h-64z m64-64v-64h64v64h-64z m-64-64v-64h64v64h-64z m0-64v-160h128v160h-128z m48.014223-48.014223h32v-64h-32v64z"  horiz-adv-x="1024" />

    
    <glyph glyph-name="FilePpt" unicode="&#58986;" d="M411.477333 425.130667a9.159111 9.159111 0 0 1-9.159111-9.130667v-315.448889c0-5.006222 4.124444-9.102222 9.159111-9.102222h37.12a9.159111 9.159111 0 0 1 9.159111 9.102222v109.169778h72.334223c67.896889 0 109.937778 44.458667 109.937777 107.52 0 62.293333-41.472 107.804444-109.710222 107.804444h-118.840889v0.085334z m172.088889-107.747556c0-49.607111-30.264889-62.065778-81.351111-62.065778h-44.458667V379.164444h64.227556c38.627556 0 61.582222-22.499556 61.582222-61.809777z m320 321.934222L657.635556 885.248A36.494222 36.494222 0 0 1 631.808 896H146.318222c-20.224 0-36.579556-16.355556-36.579555-36.579556v-950.840888c0-20.224 16.355556-36.579556 36.579555-36.579556h731.420445c20.252444 0 36.579556 16.355556 36.579555 36.579556V613.376c0 9.699556-3.896889 19.057778-10.752 25.941333z m-73.585778-42.752h-215.096888V811.662222l215.096888-215.096889z m2.048-642.275555h-640V813.710222h345.144889v-246.840889a48.014222 48.014222 0 0 1 48.014223-48.014222h246.840888v-564.565333z"  horiz-adv-x="1024" />

    
    <glyph glyph-name="file-word" unicode="&#59242;" d="M854.584889 607.288889c6.030222-5.973333 9.415111-14.08 9.415111-22.584889v-616.704c0-17.692444-14.307556-32-32-32H192a31.971556 31.971556 0 0 0-32 32V800c0 17.692444 14.307556 32 32 32h424.675556c8.533333 0 16.725333-3.413333 22.727111-9.386667l215.210666-215.324444z m-64.398222-37.262222l-188.188445 188.16v-188.188445h188.188445zM512 329.870222l52.821333-197.006222a12.003556 12.003556 0 0 1 11.576889-8.903111h31.772445a11.975111 11.975111 0 0 1 11.605333 8.903111l74.382222 275.996444a12.032 12.032 0 0 1-11.605333 15.104h-35.555556a12.003556 12.003556 0 0 1-11.719111-9.301333l-45.795555-199.111111-49.749334 199.338667a12.003556 12.003556 0 0 1-11.633777 9.102222h-32.199112a12.003556 12.003556 0 0 1-11.662222-9.102222l-49.635555-198.940445-46.08 198.712889a12.003556 12.003556 0 0 1-11.690667 9.301333h-35.413333a11.946667 11.946667 0 0 1-11.576889-15.104l74.183111-275.996444a12.003556 12.003556 0 0 1 11.576889-8.903111h32a12.003556 12.003556 0 0 1 11.576889 8.903111L512 329.898667z"  horiz-adv-x="1024" />

    
    <glyph glyph-name="FilePdf" unicode="&#58987;" d="M534.016 312.689778l0.369778 1.592889c6.627556 27.306667 14.961778 61.383111 8.448 92.216889-4.352 24.348444-22.300444 33.848889-37.603556 34.531555-18.062222 0.796444-34.161778-9.500444-38.172444-24.462222-7.537778-27.420444-0.796444-64.910222 11.548444-112.696889-15.559111-37.006222-40.334222-90.851556-58.510222-122.851556-33.848889-17.464889-79.217778-44.458667-85.959111-78.506666-1.365333-6.286222 0.227556-14.279111 3.982222-21.475556 4.266667-8.021333 11.008-14.193778 18.887111-17.152 3.413333-1.251556 7.537778-2.275556 12.344889-2.275555 20.110222 0 52.679111 16.213333 96.113778 90.737777 6.627556 2.161778 13.482667 4.437333 20.110222 6.741334 31.089778 10.524444 63.317333 21.475556 92.444445 26.396444 32.227556-17.265778 68.920889-28.330667 93.838222-28.330666 24.689778 0 34.417778 14.620444 38.058666 23.409777 6.4 15.445333 3.328 34.872889-7.111111 45.255111-15.075556 14.876444-51.768889 18.773333-108.885333 11.662223-28.103111 17.152-46.506667 40.448-59.875556 75.207111z m-125.354667-173.596445c-15.900444-23.096889-27.875556-34.645333-34.417777-39.68 7.68 14.08 22.641778 28.928 34.417777 39.68z m100.124445 269.141334c5.944889-10.183111 5.12-40.931556 0.568889-56.462223-5.603556 22.755556-6.4 54.983111-3.100445 58.737778 0.910222-0.113778 1.706667-0.796444 2.531556-2.275555z m-1.848889-137.728c12.231111-21.134222 27.676444-39.310222 44.686222-52.792889-24.689778-5.603556-47.217778-14.848-67.299555-23.096889l-14.08-5.688889c15.217778 27.534222 27.875556 58.737778 36.693333 81.578667z m177.834667-74.837334c0.113778-0.256 0.227556-0.568889-0.455112-1.052444h-0.227555l-0.227556-0.341333c-0.910222-0.568889-10.296889-6.058667-50.631111 9.841777 46.392889 2.161778 51.427556-8.334222 51.541334-8.448z m218.737777 443.648L657.578667 885.248A36.494222 36.494222 0 0 1 631.751111 896H146.261333C126.008889 896 109.681778 879.644444 109.681778 859.420444v-950.840888c0-20.224 16.355556-36.579556 36.579555-36.579556h731.420445c20.224 0 36.579556 16.355556 36.579555 36.579556V613.376c0 9.699556-3.896889 19.057778-10.752 25.941333z m-73.585777-42.752h-215.096889V811.662222l215.096889-215.096889z m2.048-642.275555H192V813.710222h345.144889v-246.840889a48.014222 48.014222 0 0 1 48.014222-48.014222h246.840889v-564.565333z"  horiz-adv-x="1024" />

    
    <glyph glyph-name="flag" unicode="&#59243;" d="M880.014222 590.990222h-256V704c0 17.692444-14.307556 32-32 32H184.007111V775.992889a8.021333 8.021333 0 0 1-8.021333 8.021333H120.035556a8.021333 8.021333 0 0 1-8.021334-8.021333V-7.964444c0-4.408889 3.612444-8.021333 8.021334-8.021334h55.978666a8.021333 8.021333 0 0 1 8.021334 8.021334V256h247.978666v-113.009778c0-17.692444 14.307556-32 32.028445-32h416c17.692444 0 32 14.307556 32 32V558.990222c0 17.720889-14.307556 32-32.028445 32z"  horiz-adv-x="1024" />

    
    </font>
</defs>
</svg>
